<?xml version="1.0" encoding="UTF-8"?>
<svg id="logo-avatar" xmlns="http://www.w3.org/2000/svg" viewBox="0 0 625.94 567.71">
  <defs>
    <style>
      .cls-1 {
        fill: #2b222b;
      }

      .cls-2 {
        fill: #edb183;
      }
    </style>
  </defs>
  <path class="cls-1" d="M465.49,187.37l-30.09-78.52c-5.24-13.67-22.29-18.25-33.67-9.05l-44.21,35.73c-14.6-2.74-29.73-4.21-45.25-4.21-41.3,0-79.9,10.22-112.78,27.95l-47.77-21.26c-13.37-5.95-28.66,2.88-30.2,17.43l-9.97,94.67c-10.65,22.73-16.55,47.64-16.55,73.78,0,106.36,83.4,144.21,225.66,149.12,114.46,3.95,208.87-42.77,208.87-149.12,0-53.36-24.49-101.64-64.05-136.52Z"/>
  <path class="cls-2" d="M182.69,299.29c-.17,0-.34-.02-.51-.06-1.05-.25-1.67-1.21-1.39-2.15.4-1.33,9.99-32.66,30.38-36.3,10.58-1.89,21.82,4.01,33.46,17.5.66.77.5,1.87-.36,2.46-.87.59-2.1.45-2.76-.32-10.65-12.35-20.6-17.8-29.56-16.2-18,3.21-27.27,33.46-27.36,33.76-.23.78-1.03,1.3-1.9,1.3Z"/>
  <path class="cls-2" d="M364.07,273.68c-.17,0-.34-.02-.51-.07-1.05-.28-1.67-1.36-1.39-2.41.4-1.49,9.99-36.63,30.39-40.72,10.55-2.13,21.81,4.49,33.46,19.62.66.86.5,2.1-.36,2.76-.87.67-2.1.5-2.76-.36-10.65-13.85-20.61-19.97-29.56-18.16-18.02,3.61-27.26,37.53-27.36,37.87-.23.88-1.03,1.46-1.9,1.46Z"/>
</svg>

