<?xml version="1.0" encoding="UTF-8"?>
<svg id="logo-texte" xmlns="http://www.w3.org/2000/svg" viewBox="0 0 1006.88 249.41">
  <defs>
    <style>
      .cls-1 {
        fill: #2b222b;
      }

      .cls-2 {
        fill: #edb183;
      }
    </style>
  </defs>
  <g>
    <path class="cls-1" d="M126.03,177.85c-7.68,0-15.12.97-22.02-1.58-6.91-2.55-12.87-8.42-17.97-13.09-5.11-4.68-8.89-10.22-11.39-16.65-2.49-6.42-3.31-13.5-2.63-21.24.65-7.31,2.34-13.82,4.98-19.52,2.64-5.7,5.48-11.66,9.42-15.91,3.93-4.25,8.66-6.75,13.28-9.47,4.62-2.72,9.36-4.76,14.25-6.13,4.89-1.36,9.68-2.04,14.43-2.05,5.82,0,11.2,1.03,16.25,3.06,5.04,2.05,9.24,5.11,12.62,9.19,3.39,4.08,5.41,9.27,5.97,15.56.27,3.06-.24,6.08-1.61,9.06-1.36,2.97-3.47,5.42-6.35,7.33-2.88,1.91-6.36,2.88-10.4,2.88-2.36,0-4.59-.32-6.66-.97-2.08-.63-4.2-1.27-6.35-1.91-2.15-.63-4.47-.96-6.98-.96-2.67,0-5.37.59-8.15,1.79-2.77,1.19-5.1,2.92-6.99,5.17-1.91,2.25-2.91,4.99-2.98,8.22-.03,1.11.45,1.88,1.44,2.29.98.43,2.12.66,3.42.71,1.3.04,2.47.06,3.5.06,1.82,0,3.57-.06,5.25-.19,1.68-.14,3.34-.2,4.99-.2,2.93,0,5.37.5,7.29,1.47,1.93.98,2.94,2.82,3.03,5.54.09,2.72-.82,4.58-2.74,5.55-1.92.98-4.4,1.46-7.41,1.46-1.86,0-3.78-.15-5.72-.45-1.95-.3-3.98-.45-6.1-.45-.89,0-1.9.04-3.06.12-1.15.08-2.15.34-3,.77-.85.43-1.29,1.15-1.31,2.17-.07,3.23.91,5.97,3,8.22,2.08,2.26,4.77,3.96,8.05,5.11,3.28,1.15,6.62,1.72,10.01,1.72,3.2,0,5.86-.49,7.98-1.46,2.11-.99,4.55-2.41,7.28-4.28,1.76-1.19,3.71-1.74,5.88-1.66,2.17.08,4.08.75,5.74,1.98,1.67,1.23,2.58,3.04,2.74,5.42.11,1.62-.48,3.29-1.8,5.04-1.32,1.75-3.65,3.34-7.02,4.79-2.56,1.11-5.84,1.95-9.89,2.55-4.04.59-8.14.89-12.25.89Z"/>
    <path class="cls-1" d="M203.26,177.85c-5.99,0-11.96.08-17.3-1.84-5.34-1.91-9.72-5.71-13.61-9.32-3.88-3.62-6.75-7.93-8.63-12.96-1.89-5.01-2.49-10.63-1.92-16.84.62-6.8,1.24-13.38,4.12-18.31,2.88-4.93,7.57-8.29,11.67-11.48,4.11-3.19,8.41-5.54,12.99-7.08,4.57-1.52,8.96-2.3,13.25-2.29,5.05,0,9.66.98,13.94,2.94,4.27,1.95,7.79,4.79,10.58,8.54,2.79,3.74,4.48,8.3,4.97,13.65.36,4-.06,7.65-1.33,10.96-1.28,3.32-3.24,5.98-5.9,7.97-2.65,2.01-5.82,3-9.46,3-2.16,0-3.98-.32-5.42-.96-1.44-.63-2.76-1.36-3.94-2.17-1.17-.81-2.43-1.51-3.76-2.11-1.33-.59-2.98-.89-4.93-.89-2.74,0-5.04.64-6.94,1.92-1.9,1.28-3.36,2.89-4.36,4.85-1.02,1.95-1.56,3.91-1.62,5.87-.08,2.72.68,5.19,2.33,7.4,1.64,2.21,3.91,3.96,6.81,5.22,2.89,1.28,6.13,1.92,9.67,1.92,1.82,0,3.56-.26,5.23-.77,1.67-.51,3.66-1.48,5.94-2.94,1.58-1.02,3.18-1.46,4.8-1.34,1.63.14,3.01.68,4.15,1.66,1.14.98,1.77,2.27,1.88,3.89.08,1.28-.32,2.76-1.22,4.46-.91,1.7-2.67,3.15-5.3,4.34-2.01.85-4.55,1.5-7.61,1.97-3.06.47-6.11.71-9.1.71Z"/>
    <path class="cls-1" d="M354.81,177.85c-1.51,0-3.14-.16-4.93-.45-1.77-.3-3.79-.87-6.03-1.72-4.95-1.79-9.04-4.91-12.2-9.37-3.18-4.47-5.63-9.76-7.35-15.88-1.72-6.12-2.84-12.66-3.39-19.58-.55-6.93-2.03-13.02-1.75-19.83.31-7.65,2.47-15.11,3.68-20.81,1.21-5.7,3.04-10.12,5.49-13.27,2.45-3.15,5.66-4.72,9.73-4.72,2.21,0,4.31.54,6.32,1.6,2,1.06,3.76,2.87,5.28,5.42,1.52,2.55,2.61,6.02,3.27,10.4.65,4.38.72,9.88.13,16.52-.13,1.27-.37,3.55-.72,6.82-.35,3.28-.73,7.04-1.16,11.3-.43,4.26-.87,8.54-1.33,12.88-.46,4.34-.8,8.3-1.02,11.87-.22,3.57-.28,6.29-.17,8.16.23,3.57,1.31,6,3.25,7.28,1.94,1.27,4.21,2.07,6.79,2.42,2.13.26,3.71.89,4.76,1.91,1.05,1.03,1.61,2.21,1.66,3.57.09,2.13-.97,3.57-3.18,4.34-2.21.77-4.58,1.15-7.11,1.15Z"/>
    <path class="cls-1" d="M398.66,179.84c-14.43,0-24.73-5.6-31.09-12.83-6.4-7.23-8.76-17.47-7.59-30.74.46-5.27,1.45-10.23,2.89-14.87,1.44-4.63,1.82-9.81,4.4-13.39,2.58-3.58,7.48-5.28,11.38-7.27,3.91-2,8.61-3,14.2-3,7.28,0,13.38,1.42,18.51,4.28,5.13,2.84,9.2,6.72,12.22,11.61,3.02,4.89,4.86,10.35,5.39,16.39.29,3.31-.2,6.63-1.5,9.95-1.32,3.32-3.58,6.32-6.81,9-3.24,2.68-7.48,4.84-12.71,6.5-5.24,1.66-11.61,2.49-19.01,2.49-1.97,0-3.32.25-4.04.77-.73.51-1.1,1.23-1.13,2.16-.05,1.96.81,3.32,2.61,4.09,1.8.76,3.95,1.14,6.4,1.14,2.46,0,4.55-.08,6.28-.25,2.1-.18,4.07-.55,5.92-1.15,1.85-.59,3.83-1.57,5.95-2.94,1.49-1.02,3.19-1.4,5.15-1.14,1.94.25,3.38,1.32,4.3,3.19,1.11,1.87,1.09,3.93-.11,6.19-1.19,2.25-2.98,3.89-5.35,4.91-2.01.85-4.13,1.56-6.35,2.11-2.22.55-5.75,2.81-9.87,2.81ZM391.81,146.59c1.73,0,3.28-.57,4.62-1.72,1.34-1.14,2.4-2.5,3.19-4.08.8-1.57,1.18-3.04,1.16-4.4-.08-4.85-2.7-7.27-7.85-7.27-2.16,0-3.83.51-5.02,1.53-1.18,1.03-1.99,2.33-2.41,3.89-.42,1.58-.64,3.21-.69,4.91-.06,2.39.53,4.17,1.81,5.36,1.28,1.19,3.01,1.79,5.18,1.79Z"/>
  </g>
  <g>
    <path class="cls-1" d="M520.77,178.69c-1.94,0-3.62-.72-5.05-2.14-1.43-1.42-2.69-3.36-3.76-5.78-.58-1.34-1.64-2.02-3.18-2.02-.64,0-1.2.18-1.69.56-.49.38-.96.82-1.41,1.32-2.04,2.6-4.66,4.59-7.82,5.98-3.17,1.38-6.39,2.08-9.61,2.08-4.53,0-8.87-1.22-12.96-3.66-4.09-2.43-7.66-5.79-10.71-10.06-3.05-4.27-5.29-9.21-6.75-14.77-1.46-5.58-4.12-11.69-3.65-18.06.77-10.32,5.91-18.19,10.74-23.89,4.85-5.7,10.77-8.56,18-8.56,3.19,0,5.62.42,7.33,1.26,1.7.84,3.1,1.7,4.18,2.58,1.09.88,2.15,1.32,3.2,1.32.64,0,1.36-.26,2.16-.76.8-.5,1.19-1.47,1.17-2.9-.09-8.55,1.23-15.13,3.86-19.75,2.63-4.61,6.26-6.92,11.01-6.92,4.68,0,8.4,2.5,11.31,7.48,2.89,4.99,4.81,12.98,5.63,23.97.37,5.04.54,10.44.47,16.23-.08,5.8-.32,11.52-.75,17.18-.43,5.66-.93,10.84-1.5,15.53-.58,4.7-1.16,8.44-1.72,11.2-.75,3.94-1.76,7.02-3.02,9.25-1.26,2.22-3.1,3.34-5.5,3.34ZM498.94,161.7c2.86,0,5.12-.92,6.74-2.76,1.61-1.85,2.04-4.82,1.35-8.94-1.21-6.96-4.88-10.44-11.05-10.44-3.44,0-5.98.84-7.64,2.52-1.67,1.68-2.53,3.65-2.57,5.92-.03,1.67.39,3.59,1.29,5.72.89,2.14,2.33,4.01,4.33,5.59,1.99,1.6,4.52,2.4,7.57,2.4Z"/>
    <path class="cls-1" d="M570.04,178.69c-6.46,0-11.79-1.58-15.85-4.72-4.07-3.14-7.08-7.36-9.05-12.64-1.97-5.28-4.24-10.44-4.61-16.9-.39-6.46.9-13.72,1.54-20.34.81-8.38,2.72-14.55,5.58-18.5,2.87-3.94,6.54-5.91,11.15-5.91,4.45,0,7.86,1.93,10.38,5.78,2.5,3.86,3.75,9.99,3.63,18.37-.05,3.2-.12,6.31-.2,9.38-.09,3.06-.24,6.22-.46,9.49-.34,4.96-.1,8.71.73,11.26.82,2.56,2.04,4.28,3.63,5.16,1.58.88,3.26,1.32,5.03,1.32,2.12,0,4.01-.76,5.65-2.26,1.64-1.52,2.2-3.22,1.71-5.16-1.14-4.2-2.92-8.43-3.86-13.46-.93-5.03-.67-10.44-.75-15.47-.12-8.38,1.09-14.55,3.51-18.5,2.44-3.94,5.9-5.91,10.49-5.91,4.46,0,8.09,1.93,11.02,5.78,2.93,3.86,4.87,9.99,5.68,18.37.36,3.78.51,7.86.43,12.27-.08,4.4-.33,8.76-.76,13.09-.43,4.32-.95,8.22-1.55,11.7-.6,3.48-1.14,6.18-1.63,8.12-.75,3.1-1.81,5.49-3.15,7.17-1.36,1.68-3.34,2.52-5.92,2.52-2.4,0-4.38-.74-5.9-2.2-1.53-1.46-2.79-3.46-3.78-5.98-.49-1.26-1.5-1.88-3.03-1.88-.63,0-1.19.18-1.68.56-.49.38-.95.82-1.4,1.32-2.03,2.6-4.56,4.62-7.6,6.04-3.02,1.42-6.03,2.14-9,2.14Z"/>
  </g>
  <g>
    <path class="cls-1" d="M681.57,178.35c-5.95,0-11.63-.95-16.93-2.86-5.31-1.9-9.91-4.64-13.78-8.23-3.85-3.6-6.71-7.88-8.58-12.88-1.87-4.98-2.47-10.56-1.91-16.74.62-6.76,1.26-12.74,4.12-17.64,2.86-4.9,7.5-8.8,11.57-11.96,4.08-3.17,8.36-5.51,12.91-7.04,4.55-1.52,8.91-2.28,13.17-2.28,5.02,0,9.6.97,13.85,2.92,4.24,1.94,7.74,4.77,10.52,8.49,2.77,3.71,4.46,8.24,4.94,13.57.36,3.97-.06,7.6-1.33,10.9-1.27,3.3-3.22,5.94-5.86,7.92-2.63,1.99-5.79,2.98-9.4,2.98-2.15,0-3.95-.32-5.38-.95-1.43-.63-2.74-1.35-3.91-2.16-1.16-.81-2.41-1.5-3.74-2.09-1.32-.59-2.96-.89-4.9-.89-2.72,0-5.01.64-6.9,1.91-1.89,1.27-3.34,2.87-4.34,4.82-1.01,1.94-1.55,3.89-1.61,5.83-.08,2.7.68,5.16,2.32,7.36,1.63,2.2,3.89,3.93,6.77,5.19,2.87,1.27,6.07,1.24,9.6,1.24,1.81,0,3.56.41,5.22-.09,1.66-.51,3.64-1.48,5.91-2.92,1.57-1.01,3.16-1.45,4.77-1.33,1.62.13,2.99.68,4.13,1.65,1.13.97,1.76,2.26,1.87,3.87.08,1.27-.32,2.75-1.22,4.44-.9,1.69-2.65,3.13-5.27,4.31-2,.84-4.52,1.5-7.56,1.96-3.04.46-6.07.7-9.05.7Z"/>
    <path class="cls-1" d="M774.06,178.35c-1.77,0-3.16-.89-4.18-2.66-1.02-1.77-1.58-4.99-1.69-9.64-.07-2.96-.22-6.01-.43-9.13-.21-3.13-.7-6.03-1.47-8.75-.76-2.7-1.94-4.88-3.53-6.53-1.6-1.64-3.82-2.47-6.67-2.47-3.2,0-5.65,1.01-7.37,3.04-1.72,2.02-3.04,4.6-3.92,7.73-.9,3.13-1.62,6.39-2.14,9.76-.52,3.38-1.22,6.47-2.12,9.26-.79,2.62-1.82,4.85-3.08,6.67-1.25,1.82-2.96,2.72-5.1,2.72-2.15,0-3.86-1.06-5.15-3.17-1.29-2.12-2.42-5.24-3.37-9.39-.88-3.8-1.7-8.17-2.42-13.12-.72-4.94-1.34-10.18-1.84-15.71-.5-5.54-.81-11.05-.93-16.55-.12-5.49-1.28-11.2-.94-16.02,1.56-21.05,8.45-31.02,18.11-31.02,3.5,0,6.25,1.23,8.31,3.68,2.05,2.45,3.55,5.79,4.47,10.01.92,4.23,1.39,9.01,1.34,14.33-.03,3.13.13,5.16.49,6.09.36.93.83,1.39,1.4,1.39.5,0,.94-.24,1.36-.7.4-.47,1.22-1.24,2.44-2.34,2.44-2.36,4.65-4.14,6.68-5.32,2.03-1.19,4.33-1.78,6.89-1.77,3.6,0,6.98,1.12,10.21,3.36,3.21,2.24,5.94,5.79,8.2,10.65,2.24,4.86,3.7,11.26,4.26,19.2.43,6.09-.2,11.57-.32,17.72-.11,5.64-2.49,10.33-4.28,14.68-1.78,4.35-3.86,7.78-6.19,10.27-2.33,2.5-4.68,3.74-7.01,3.75Z"/>
    <path class="cls-1" d="M859.41,178.35c-3.73,0-6.78-2.58-9.05-7.74-.7-1.43-1.58-2.15-2.67-2.16-.91,0-1.6.24-2.09.7-.5.46-.97.91-1.41,1.33-2.23,2.54-4.32,4.48-6.21,5.83-1.89,1.35-4.47,2.03-7.72,2.03-4.56,0-8.94-1.21-13.04-3.61-4.1-2.42-7.66-5.78-10.65-10.08-3-4.31-5.15-9.25-6.5-14.84-1.34-5.58-1.67-11.54-1.08-17.88.63-5.91,3.04-11.06,4.81-16.42,1.52-4.61,5.81-9.08,9.81-12.17,4-3.09,8.55-4.62,13.8-4.62,3.81,0,7.02.93,9.71,2.79,1.23.84,2.28,1.71,3.14,2.6.86.89,1.58,1.79,2.14,2.72.49.76.91,1.35,1.27,1.77.36.42.86.64,1.49.64.63,0,1.09-.24,1.39-.7.29-.46.59-.99.88-1.58,1.24-2.46,2.69-4.44,4.34-5.96,1.66-1.52,3.61-2.28,5.89-2.28,3.95,0,6.9,1.88,8.93,5.64,2.02,3.76,3.39,9.15,4.05,16.16.34,3.64,1.42,7.31.42,11.99-.91,4.26-.24,8.71-.55,13.05-.31,4.35-.73,8.42-1.27,12.18-.53,3.77-1.12,6.87-1.75,9.32-.83,3.3-1.79,6-2.85,8.12-1.06,2.11-2.81,3.17-5.22,3.17ZM837.3,161.74c2.96,0,5.24-.93,6.85-2.79,1.61-1.86,2.03-4.9,1.3-9.13-1.23-7.1-4.85-10.65-10.93-10.65-3.39,0-5.93.87-7.67,2.6-1.74,1.73-2.66,3.74-2.72,6.02-.05,1.69.35,3.64,1.22,5.84.87,2.2,2.28,4.1,4.27,5.71,1.97,1.6,4.54,2.41,7.68,2.4Z"/>
    <path class="cls-1" d="M910.88,178.35c-3.08,0-6.21-.36-9.41-1.08-3.19-.71-6.25-2.13-9.13-4.24-2.88-2.11-5.39-5.24-7.46-9.39-2.08-4.14-3.6-9.65-4.54-16.54-.94-6.89-1.43-14.23-.84-24.46.6-10.31,2.79-19.54,3.49-25.68.72-6.3,3.68-10.29,6.63-12.87,2.95-2.58,6.93-3.87,12.03-3.87,5.93,0,10.03,2.4,12.42,7.22,2.38,4.82,2.61,11.29.39,19.4-.53,1.87-.38,3.38.49,4.57.87,1.19,2.33,1.6,4.37,1.27,5.45-.85,9.47-.38,12.14,1.39,2.67,1.78,4.12,4.31,4.31,7.6.23,3.89-.82,6.77-3.19,8.63-2.36,1.86-5.76,2.24-10.13,1.13-1.71-.42-3.41-.99-5.12-1.71-1.71-.71-3.32-1.22-4.84-1.52-1.53-.3-2.93-.08-4.24.63-1.31.72-2.43,2.31-3.38,4.76-.7,1.78-1.27,4.03-1.73,6.79-.46,2.75.27,5.7.32,8.7.05,3-.46,5.72.33,8.34.78,2.62,2.05,4.76,3.82,6.41,1.77,1.65,4.16,2.47,7.16,2.47,1.82,0,3.56-.31,5.23-.95,1.67-.63,3.47-1.53,5.42-2.72,1.59-1.01,3.19-1.46,4.81-1.33,1.63.12,3,.68,4.14,1.65,1.13.97,1.74,2.26,1.83,3.87.07,1.26-.35,2.76-1.27,4.5-.92,1.73-2.69,3.19-5.32,4.37-4.09,1.78-10.35,2.66-18.72,2.66Z"/>
  </g>
  <g>
    <path class="cls-1" d="M306.26,123.98l-5.67-14.79c-.99-2.58-4.2-3.44-6.34-1.71l-8.33,6.73c-2.75-.52-5.6-.79-8.53-.79-7.78,0-15.05,1.92-21.25,5.27l-9-4c-2.52-1.12-5.4.54-5.69,3.28l-1.88,17.84c-2.01,4.28-3.12,8.98-3.12,13.9,0,20.04,15.71,27.17,42.52,28.1,21.56.74,39.35-8.06,39.35-28.1,0-10.05-4.61-19.15-12.07-25.72Z"/>
    <path class="cls-2" d="M250.66,142.97s-.07,0-.1-.01c-.21-.05-.34-.24-.28-.43.08-.27,2-6.55,6.09-7.28,2.12-.38,4.37.8,6.71,3.51.13.15.1.37-.07.49-.17.12-.42.09-.55-.06-2.13-2.47-4.13-3.57-5.93-3.25-3.61.64-5.47,6.71-5.48,6.77-.05.16-.21.26-.38.26Z"/>
    <path class="cls-2" d="M287.02,137.83s-.07,0-.1-.01c-.21-.06-.34-.27-.28-.48.08-.3,2-7.34,6.09-8.16,2.11-.43,4.37.9,6.71,3.93.13.17.1.42-.07.55-.17.13-.42.1-.55-.07-2.14-2.78-4.13-4-5.93-3.64-3.61.72-5.47,7.52-5.48,7.59-.05.18-.21.29-.38.29Z"/>
  </g>
</svg>