<?xml version="1.0" encoding="UTF-8"?>
<svg id="age" xmlns="http://www.w3.org/2000/svg" viewBox="0 0 64 64">
  <defs>
    <style>
      .cls-1 {
        fill: #2b222b;
      }
    </style>
  </defs>
  <g>
    <path class="cls-1" d="M20.8,34.89c-1.76,0-3.51-.3-5.18-.9l-1.69-.6c-4.05-1.46-6.77-5.48-6.77-10.02v-8.22c0-2.02.37-3.98,1.1-5.82l.15-.38c.44-1.11,1.37-1.92,2.5-2.16,1.1-.24,2.25.09,3.08.89l3.6,3.5,2.04-.11c.73-.05,1.54-.05,2.46,0l1.72.11,3.26-3.6c.72-.79,1.72-1.19,2.77-1.11s1.99.63,2.59,1.52c1.73,2.57,2.65,5.6,2.65,8.77v6.33c0,2.02-.54,3.99-1.55,5.67-.5.83-1.57,1.1-2.4.6-.83-.5-1.1-1.57-.6-2.4.69-1.14,1.05-2.48,1.05-3.87v-6.33c0-2.43-.69-4.76-2-6.73l-3.25,3.58c-.63.69-1.52,1.08-2.46,1.08h-.11s-1.88-.12-1.88-.12c-.75-.04-1.43-.04-2.04,0l-2.22.12h-.01c-.96,0-1.77-.33-2.39-.93l-3.57-3.47-.13.32c-.57,1.44-.86,2.97-.86,4.54v8.22c0,3.07,1.79,5.77,4.44,6.72l1.69.6c2.08.75,4.32.9,6.48.44.94-.2,1.87.4,2.08,1.35.2.95-.4,1.87-1.35,2.08-1.06.22-2.13.34-3.2.34Z"/>
    <path class="cls-1" d="M18.32,21.4c-.53,0-1.05-.23-1.4-.67-.03-.04-.11-.15-.14-.19-.37-.55-.71-.84-1.06-.82-.17,0-.62.1-1.21.9l-.08.11c-.6.76-1.7.88-2.46.27-.75-.6-.88-1.69-.29-2.44,1.4-1.89,2.92-2.31,3.95-2.34.93-.03,2.65.25,4.06,2.37.6.76.46,1.83-.3,2.44-.32.25-.7.37-1.07.37Z"/>
    <path class="cls-1" d="M29.47,21.4c-.52,0-1.05-.23-1.4-.67-.03-.04-.11-.16-.14-.2-.37-.55-.71-.85-1.06-.82-.17,0-.62.1-1.21.9l-.08.11c-.6.76-1.71.88-2.46.27-.75-.6-.88-1.69-.29-2.44,1.4-1.89,2.92-2.31,3.95-2.34,1.1-.03,2.72.36,4.06,2.37.61.75.47,1.83-.29,2.44-.32.25-.7.38-1.08.38Z"/>
  </g>
  <g>
    <path class="cls-1" d="M38.95,57.44c-2.2,0-4.4-.38-6.5-1.12l-2.19-.78c-5-1.79-8.36-6.77-8.36-12.41v-10.58c0-2.52.46-4.98,1.38-7.3l.19-.49c.5-1.27,1.57-2.2,2.86-2.48,1.25-.27,2.56.11,3.5,1.02l4.71,4.58c.05.05.12.08.19.08l2.74-.16c1.04-.06,2.09-.06,3.12,0l2.33.15c.07,0,.13-.04.17-.09l4.28-4.71c.82-.9,1.98-1.36,3.15-1.28,1.19.09,2.27.72,2.96,1.74,2.17,3.22,3.32,7.03,3.32,11.01v8.14c0,5.51-3.26,10.45-8.11,12.31l-2.81,1.08c-2.23.85-4.58,1.28-6.93,1.28ZM27.13,25.69s-.04,0-.07,0c-.15.03-.27.15-.34.34l-.19.49c-.75,1.91-1.13,3.94-1.13,6.02v10.58c0,4.16,2.43,7.82,6.04,9.11l2.19.78c3.56,1.27,7.47,1.23,11-.13l2.81-1.08c3.5-1.34,5.86-4.98,5.86-9.04v-8.14c0-3.28-.94-6.41-2.72-9.05-.11-.16-.23-.2-.31-.21-.11,0-.21.04-.3.14l-4.28,4.71c-.71.79-1.73,1.23-2.79,1.23h-.11s-2.42-.16-2.42-.16c-.9-.06-1.81-.06-2.7,0l-2.84.16c-1.13,0-2.02-.38-2.73-1.06l-4.71-4.58c-.08-.08-.17-.12-.25-.12ZM24.89,25.88h0,0Z"/>
    <path class="cls-1" d="M35.71,40.06c-.52,0-1.04-.23-1.39-.67-.03-.04-.08-.11-.15-.21-.58-.87-1.21-1.27-1.79-1.27-.36,0-1.09.2-1.95,1.37l-.09.12c-.6.75-1.71.88-2.46.28-.75-.6-.88-1.69-.29-2.45,1.68-2.27,3.48-2.78,4.69-2.82,1.29-.07,3.2.43,4.8,2.83.6.75.47,1.84-.29,2.45-.32.25-.7.38-1.08.38Z"/>
    <path class="cls-1" d="M50.06,40.06c-.52,0-1.04-.23-1.39-.67-.03-.04-.08-.11-.15-.21-.57-.86-1.15-1.27-1.76-1.27h-.04c-.36,0-1.09.2-1.95,1.37l-.09.12c-.6.75-1.71.88-2.46.28-.75-.6-.88-1.69-.29-2.45,1.68-2.27,3.48-2.78,4.69-2.82,1.29-.07,3.2.43,4.8,2.83.6.75.47,1.84-.29,2.45-.32.25-.7.38-1.08.38Z"/>
  </g>
</svg>