<?xml version="1.0" encoding="UTF-8"?>
<svg id="Calendrier" xmlns="http://www.w3.org/2000/svg" viewBox="0 0 64 64">
  <defs>
    <style>
      .cls-1 {
        fill: #2b222b;
      }
    </style>
  </defs>
  <path class="cls-1" d="M52.96,27.5l-18.8-.9c-1.44-.07-2.89-.07-4.33,0l-18.71.89h0c-2.7,0-4.83-2.13-4.83-4.75v-5.74c0-2.62,2.13-4.75,4.75-4.75h4.06v-2.24c0-2.29,2.81-3.75,4.75-3.75h.97c1.94,0,4.75,1.46,4.75,3.75v2.3l6.23.21h.45s5.88-.2,5.88-.2v-2.3c0-2.29,2.81-3.75,4.75-3.75,2.33,0,5.72,1.84,5.72,4.72v1.27h4.37c2.62,0,4.75,2.13,4.75,4.75v5.74c0,2.62-2.13,4.75-4.75,4.75ZM32,23.05c.78,0,1.56.02,2.33.06l18.71.89c.61,0,1.17-.56,1.17-1.25v-5.74c0-.69-.56-1.25-1.25-1.25h-7.87v-4.77c-.02-.35-1.22-1.22-2.22-1.22-.36,0-.99.28-1.25.5v5.44l-9.89.32-9.67-.32v-5.44c-.26-.22-.89-.5-1.25-.5h-.97c-.36,0-.99.28-1.25.5v5.5h-7.56c-.69,0-1.25.56-1.25,1.25v5.74c0,.69.56,1.25,1.25,1.25l18.63-.89c.77-.04,1.55-.06,2.33-.06Z"/>
  <path class="cls-1" d="M30.49,58.42c-3.49,0-6.85-.16-10.11-.32-3.2-.15-6.22-.3-9.31-.3-.58,0-2.06-.12-3.3-1.26-.94-.85-1.45-2-1.45-3.23l-.34-9.93v-.06s.34-9.26.34-9.26c0-2.41,2.13-4.42,4.75-4.42h41.92c2.62,0,4.75,2.01,4.75,4.49l.37,7.86c.03.71.04,1.44,0,2.16l-.38,9.24c0,2.4-2.13,4.42-4.75,4.42-3.86,0-7.7.16-11.41.31-3.22.13-6.55.27-9.92.3-.39,0-.78,0-1.17,0ZM9.47,43.38l.34,9.87c0,.36.17.58.31.7.37.33.88.34.94.34,3.18,0,6.38.15,9.48.3,3.57.17,7.26.35,11.07.31,3.32-.04,6.62-.17,9.81-.3,3.75-.15,7.62-.31,11.55-.31.68,0,1.25-.45,1.25-.99l.38-9.31c.03-.61.02-1.24,0-1.85l-.37-7.94c0-.62-.57-1.07-1.25-1.07H11.06c-.68,0-1.25.45-1.25.99l-.34,9.26Z"/>
</svg>