<?xml version="1.0" encoding="UTF-8"?>
<svg id="chevron" xmlns="http://www.w3.org/2000/svg" viewBox="0 0 64 64">
  <defs>
    <style>
      .cls-1 {
        fill: #2b222b;
      }
    </style>
  </defs>
  <path class="cls-1" d="M15.89,57.74c-.58,0-1.16-.29-1.49-.83-.51-.82-.26-1.9.56-2.41,1.7-1.06,3.39-2.2,5.17-3.41,1.66-1.13,3.38-2.29,5.14-3.4,7.34-4.63,14.32-10.59,20.12-15.65-.45-.37-.89-.73-1.34-1.1-4.17-3.42-8.48-6.96-13.03-10.02-3.29-2.21-6.19-4.33-8.99-6.38-2.43-1.77-4.72-3.45-7.13-5.09-.8-.54-1.01-1.63-.46-2.43s1.63-1.01,2.43-.46c2.46,1.67,4.78,3.37,7.23,5.16,2.77,2.03,5.64,4.13,8.88,6.3,4.69,3.15,9.07,6.74,13.3,10.22.99.81,1.96,1.61,2.94,2.4.4.33.64.81.65,1.33,0,.52-.21,1.01-.6,1.35-6.18,5.41-13.88,12.14-22.12,17.34-1.71,1.08-3.41,2.23-5.05,3.34-1.73,1.17-3.52,2.38-5.28,3.48-.29.18-.61.26-.92.26Z"/>
</svg>