<?xml version="1.0" encoding="UTF-8"?>
<svg id="compte" xmlns="http://www.w3.org/2000/svg" viewBox="0 0 64 64">
  <defs>
    <style>
      .cls-1 {
        fill: #EDB183;
      }
    </style>
  </defs>
  <path class="cls-1" d="M31.09,30.77c-2.75,0-5.44-1.01-7.53-2.86-2.36-2.09-3.72-5.08-3.72-8.19,0-6.71,5.91-12.81,12.39-12.81s12.39,5.46,12.39,11.93-4.89,10.97-12.18,11.86c-.45.05-.9.08-1.35.08ZM32.24,10.41c-4.57,0-8.89,4.53-8.89,9.31,0,2.14.9,4.12,2.54,5.57,1.68,1.49,3.92,2.19,6.14,1.93,4.53-.55,9.1-3.35,9.1-8.38,0-4.49-4.15-8.43-8.89-8.43Z"/>
  <path class="cls-1" d="M32.23,57.05c-7.07,0-14.24-.09-21.33-.28-1.31-.03-2.53-.71-3.25-1.82-.71-1.1-.84-2.47-.35-3.67,2.95-7.16,13.26-15.45,24.79-16.37h0c9.27-.74,18.77,5.56,24.21,16.03.64,1.24.6,2.69-.1,3.89-.7,1.19-1.95,1.92-3.33,1.96-6.29.16-12.66.24-18.94.26-.57,0-1.14,0-1.71,0ZM32.37,38.4c-10.64.85-19.66,8.94-21.83,14.21-.08.19-.02.34.04.43.05.08.18.22.4.23,7.63.2,15.36.29,22.94.27,6.25-.01,12.59-.1,18.86-.25.22,0,.34-.13.4-.24.05-.09.13-.28.01-.5-4.8-9.22-13-14.76-20.83-14.15h0Z"/>
</svg>