<?xml version="1.0" encoding="UTF-8"?>
<svg id="croix" xmlns="http://www.w3.org/2000/svg" viewBox="0 0 64 64">
  <defs>
    <style>
      .cls-1 {
        fill: #2b222b;
      }
    </style>
  </defs>
  <path class="cls-1" d="M55.99,57.74c-.51,0-1.02-.22-1.37-.66-8.64-10.81-19.36-20.97-30.7-31.72-1.83-1.73-3.66-3.47-5.49-5.21-3.8-3.63-7.71-7.28-11.6-10.84-.71-.65-.76-1.76-.11-2.47.66-.71,1.76-.76,2.47-.11,3.91,3.58,7.83,7.25,11.65,10.89,1.83,1.74,3.66,3.48,5.48,5.21,11.44,10.84,22.24,21.08,31.03,32.08.6.75.48,1.86-.27,2.46-.32.26-.71.38-1.09.38Z"/>
  <path class="cls-1" d="M8.01,57.74c-.42,0-.85-.15-1.19-.46-.71-.66-.75-1.76-.1-2.47.77-.83,1.52-1.59,2.36-2.45,1.56-1.58,3.5-3.55,6.6-7.06,12.7-14.4,27.58-28.18,39.13-38.58.72-.65,1.83-.59,2.47.13.65.72.59,1.82-.13,2.47-11.48,10.34-26.26,24.03-38.85,38.3-3.16,3.58-5.14,5.59-6.73,7.2-.81.82-1.54,1.55-2.28,2.36-.35.37-.82.56-1.29.56Z"/>
</svg>