<?xml version="1.0" encoding="UTF-8"?>
<svg id="editer" xmlns="http://www.w3.org/2000/svg" viewBox="0 0 64 64">
  <defs>
    <style>
      .cls-1 {
        fill: #2b222b;
      }
    </style>
  </defs>
  <path class="cls-1" d="M44.13,54.32l-14.7-.53c-.33-.01-.67-.01-1,0l-14.15.53h0c-2.92,0-5.24-2.32-5.24-5.17l-.49-20.56.49-13.16c0-2.79,2.32-5.11,5.17-5.11h24.49c.97,0,1.75.78,1.75,1.75s-.78,1.75-1.75,1.75H14.21c-.92,0-1.68.75-1.68,1.68l-.49,13.12.49,20.5c0,.97.75,1.72,1.68,1.72l14.08-.53c.42-.02.84-.01,1.26,0l14.64.53c.86,0,1.61-.75,1.61-1.68l-.11-11.34.11-6.87c.02-.97.82-1.72,1.78-1.72.97.02,1.74.81,1.72,1.78l-.11,6.82.11,11.32c0,2.87-2.32,5.19-5.18,5.19Z"/>
  <path class="cls-1" d="M20.7,42.37c-.78,0-1.51-.38-1.97-1.02-.48-.67-.58-1.53-.28-2.29l2.81-7.11c.22-.57.58-1.09,1.04-1.51l6.63-6.58c.91-.9,1.88-1.76,2.89-2.56l10.05-7.96c1.17-1.03,3.05-.96,4.2.22l3.31,3.37c1.18,1.21,1.2,3.11.03,4.33l-11.46,12.87c-.83.93-1.71,1.81-2.65,2.64l-4.68,4.13c-.71.72-1.66,1.13-2.67,1.18l-7.15.3s-.07,0-.1,0ZM43.82,16.25l-9.83,7.79c-.91.72-1.78,1.49-2.59,2.3l-6.74,6.69c-.06.05-.11.12-.14.2l-2.2,5.57,5.49-.23c.13,0,.26-.06.35-.16l.11-.1,4.72-4.17c.83-.73,1.62-1.52,2.35-2.34l11.29-12.68-2.81-2.86ZM46.84,18.88s0,0-.01.01h.01ZM44.11,16.02l-.03.02s.02-.02.03-.02Z"/>
  <path class="cls-1" d="M44.16,24.5c-.44,0-.88-.17-1.22-.5l-4.65-4.56c-.69-.68-.7-1.78-.03-2.47.68-.69,1.78-.7,2.47-.03l4.65,4.56c.69.68.7,1.78.03,2.47-.34.35-.8.53-1.25.53Z"/>
</svg>