<?xml version="1.0" encoding="UTF-8"?>
<svg id="envoyer" xmlns="http://www.w3.org/2000/svg" viewBox="0 0 64 64">
  <defs>
    <style>
      .cls-1 {
        fill: #EDB183;
      }
    </style>
  </defs>
  <path class="cls-1" d="M12.57,56.11c-.94,0-1.9-.32-2.67-.95-1.29-1.04-1.83-2.69-1.41-4.3l1.25-6.13c.15-.76.35-1.53.59-2.28l1.88-5.99c.36-1.41,1.6-2.5,3.13-2.7h.1s15.69-.99,15.69-.99c.04,0,.56-.03.56-.2,0,0-.01-.44-.55-.47l-15.53-.51c-1.57-.15-2.87-1.29-3.23-2.82l-2.04-7.19c-.2-.72-.37-1.45-.5-2.17l-1.1-6.23c-.31-1.34.2-2.78,1.35-3.67,1.14-.89,2.63-1.03,3.92-.39,1.76.77,3.55,1.51,5.37,2.26,5.28,2.18,10.74,4.43,15.91,7.63,5.43,3.37,11.42,6.16,17.2,8.87l.43.2c1.69.82,2.75,2.54,2.71,4.4-.03,1.85-1.09,3.48-2.76,4.26-2.08,1.15-4.27,2.25-6.39,3.32-2.97,1.5-6.04,3.04-9,4.81-6.45,3.85-12.43,6.34-18.21,8.75-1.66.69-3.3,1.37-4.95,2.09-.55.27-1.15.4-1.76.4ZM15.71,37c-.18.04-.33.17-.37.35l-1.9,6.07c-.2.65-.37,1.3-.51,1.96l-1.27,6.21c-.15.6.16.92.3,1.04.28.23.67.28,1,.11,1.74-.75,3.4-1.44,5.07-2.14,5.68-2.36,11.55-4.8,17.79-8.54,3.06-1.83,6.18-3.4,9.21-4.92,2.21-1.11,4.29-2.16,6.33-3.29l.12-.06c.82-.37.9-1.14.9-1.37,0-.59-.33-1.14-.86-1.39l-.41-.19c-5.87-2.74-11.94-5.58-17.54-9.05-4.94-3.06-10.28-5.26-15.44-7.39-1.85-.76-3.68-1.52-5.48-2.3l-.1-.05c-.21-.1-.37-.04-.47.04-.1.08-.21.22-.16.44l1.11,6.31c.11.61.25,1.24.42,1.85l2.06,7.26c.06.23.19.36.35.39l15.4.5c2.32.13,3.67,2,3.67,3.74,0,1.57-1.15,3.32-3.64,3.45l-15.61.97Z"/>
</svg>