<?xml version="1.0" encoding="UTF-8"?>
<svg id="besoin_extérieur" data-name="besoin extérieur" xmlns="http://www.w3.org/2000/svg" viewBox="0 0 64 64">
  <defs>
    <style>
      .cls-1 {
        fill: #2b222b;
      }
    </style>
  </defs>
  <g>
    <path class="cls-1" d="M37.46,42.85c-5.35,0-11.81-4.33-11.81-9.72v-5.05c0-4.49,5.77-19.01,11.35-20.54l.46-.13.46.13c5.58,1.53,11.35,16.05,11.35,20.54v5.05c0,6.08-4.42,9.72-11.81,9.72ZM37.46,11.12c-3.17,1.78-8.31,12.76-8.31,16.96v5.05c0,3.2,4.68,6.22,8.31,6.22s8.31-1.08,8.31-6.22v-5.05c0-4.2-5.14-15.19-8.31-16.96Z"/>
    <path class="cls-1" d="M37.46,56.51c-.06,0-.12,0-.17,0-.96-.09-1.67-.95-1.57-1.91.32-3.25.41-6.55.25-9.8-.06-1.18-.14-2.36-.25-3.52-.09-.96.61-1.82,1.57-1.91.95-.09,1.82.61,1.91,1.57.12,1.22.21,2.46.27,3.7.16,3.42.07,6.89-.27,10.31-.09.9-.85,1.58-1.74,1.58Z"/>
  </g>
  <g>
    <path class="cls-1" d="M24.06,56.51c-.85,0-1.59-.62-1.73-1.48-.55-3.52-.67-7.08-.35-10.57.08-.93.2-1.88.35-2.83.15-.96,1.04-1.61,2-1.46.96.15,1.61,1.05,1.46,2-.14.87-.25,1.75-.32,2.6-.29,3.21-.18,6.48.32,9.72.15.96-.51,1.85-1.46,2-.09.01-.18.02-.27.02Z"/>
    <path class="cls-1" d="M30.51,43.42h-12.41c-.94,0-1.79-.48-2.28-1.29-.49-.81-.52-1.8-.08-2.64l2.21-4.13h-.55c-.92,0-1.76-.45-2.25-1.22-.47-.72-.56-1.61-.25-2.4.82-2.81,1.85-5.6,3.05-8.27,1.11-2.99,2.24-4.75,3.33-6.44.21-.32.41-.64.62-.97.42-.78,1.25-1.28,2.14-1.28.96,0,1.81.54,2.21,1.41l3.39,7.59-3.2,1.42-2.56-5.75c-.91,1.44-1.79,2.91-2.67,5.28l-.05.11c-1.02,2.27-1.91,4.62-2.65,7h.81c.96,0,1.82.48,2.31,1.3s.51,1.81.05,2.64l-2.21,4.12h9.6l-.45-.78,3.03-1.75,1.17,2.02c.48.81.48,1.84,0,2.67s-1.36,1.34-2.32,1.34ZM29.8,41.16s0,0,0,0h0ZM18.61,34.14s0,0,0,0h0Z"/>
  </g>
</svg>