<?xml version="1.0" encoding="UTF-8"?>
<svg id="Favoris" xmlns="http://www.w3.org/2000/svg" viewBox="0 0 64 64">
  <defs>
    <style>
      .cls-1 {
        fill: #EDB183
      }
    </style>
  </defs>
  <path class="cls-1" d="M32.37,56.7c-3.4,0-12.51-8.24-13.54-9.18-4.75-4.34-7.8-9.89-8.95-11.97l-.16-.29c-2.57-4.63-5.23-9.42-.97-16.95,4.32-7.65,11.77-12.06,17.72-10.5,1.87.49,4.54,1.85,6.27,5.55,2.02-4.26,5.28-5.5,7.01-5.85,6.11-1.26,13.15,3.49,16.38,11.03,2.13,4.96,1.75,10.88-1.07,16.66-.21.42-.42.88-.64,1.36-1.16,2.47-2.59,5.54-4.83,8.11-3.92,4.5-11.37,12.05-17.21,12.05ZM24.01,10.99c-4.1,0-9.18,3.65-12.22,9.03-3.14,5.56-1.75,8.61.98,13.53h0l.17.3c1.07,1.95,3.93,7.13,8.25,11.08,5.36,4.9,10.15,8.12,11.23,8.27,3.1,0,8.69-4.16,14.52-10.85,1.91-2.19,3.23-5.02,4.29-7.29.23-.5.46-.97.67-1.41,2.37-4.85,2.72-9.73,1-13.74-2.84-6.64-8.58-9.77-12.46-8.98-3.81.78-5.99,5.1-5.99,11.84h-3.5c0-6.55-1.91-10.67-5.39-11.58-.5-.13-1.02-.19-1.56-.19Z"/>
</svg>