<?xml version="1.0" encoding="UTF-8"?>
<svg id="femelle" xmlns="http://www.w3.org/2000/svg" viewBox="0 0 64 64">
  <defs>
    <style>
      .cls-1 {
        fill: #2b222b;
      }
    </style>
  </defs>
  <path class="cls-1" d="M31.81,34.09h-.04c-3.56-.01-6.83-1.39-9.21-3.88-2.38-2.49-3.6-5.82-3.44-9.38.16-3.5,1.62-6.74,4.12-9.13,2.77-2.64,6.68-4.02,10.45-3.7,3.28.28,6.1,1.81,7.96,4.3,4.5,6.05,4.27,13.5-.57,18.11-2.49,2.38-5.79,3.69-9.27,3.69ZM32.6,11.45c-2.54,0-5.08,1.01-6.94,2.78-1.82,1.74-2.93,4.2-3.04,6.75-.12,2.59.77,5.01,2.48,6.81,1.71,1.8,4.09,2.79,6.68,2.8h.03c2.55,0,5.04-.99,6.86-2.72,4.13-3.94,3.06-9.61.18-13.49-1.25-1.68-3.18-2.71-5.45-2.9-.26-.02-.53-.03-.8-.03Z"/>
  <path class="cls-1" d="M32.02,56.05c-.97,0-1.75-.78-1.75-1.75,0-1.48-.03-2.96-.07-4.44-.07-2.97-.13-6.04.07-9.13.15-2.24.1-3.9.05-5.65-.03-.89-.05-1.78-.05-2.75s.78-1.75,1.75-1.75,1.75.78,1.75,1.75.03,1.79.05,2.65c.05,1.76.1,3.58-.05,5.99-.19,2.93-.13,5.92-.06,8.82.03,1.5.07,3.01.07,4.52,0,.97-.78,1.75-1.75,1.75Z"/>
  <path class="cls-1" d="M31.96,49.13c-1.87,0-3.73-.08-5.57-.23-1.29-.11-2.57-.26-3.83-.44-.96-.14-1.62-1.03-1.48-1.98s1.02-1.62,1.98-1.48c1.19.17,2.4.31,3.62.41,4.71.4,9.51.26,14.26-.41.95-.14,1.84.53,1.98,1.49s-.53,1.84-1.49,1.98c-3.15.45-6.32.67-9.48.67Z"/>
</svg>