<?xml version="1.0" encoding="UTF-8"?>
<svg id="Calque_16" data-name="Calque 16" xmlns="http://www.w3.org/2000/svg" viewBox="0 0 64 64">
  <defs>
    <style>
      .cls-1 {
        fill: #2b222b;
      }
    </style>
  </defs>
  <g>
    <path class="cls-1" d="M55.15,21.46h-.02l-4.93-.06c-.97-.01-1.74-.8-1.73-1.77.01-.96.79-1.73,1.75-1.73h.02l4.93.06c.97.01,1.74.8,1.73,1.77-.01.96-.79,1.73-1.75,1.73Z"/>
    <path class="cls-1" d="M8.01,21.46c-.95,0-1.73-.76-1.75-1.72-.02-.97.75-1.76,1.72-1.78l20.55-.34,14.85.19c.97.01,1.74.81,1.73,1.77-.01.96-.79,1.73-1.75,1.73h-.02l-14.8-.19-20.5.34h-.03Z"/>
    <path class="cls-1" d="M47.14,24.52c-.2,0-.41-.02-.61-.05-2.95-.46-4.93-2.51-4.93-5.1,0-2.82,2.33-5.12,5.2-5.12s5.2,2.3,5.2,5.12c0,1.49-.71,2.98-1.89,4-.87.75-1.93,1.15-2.97,1.15ZM46.8,17.75c-.94,0-1.7.73-1.7,1.62,0,.99,1.06,1.5,1.97,1.64.21.04.5-.08.76-.3.4-.35.67-.87.67-1.34,0-.89-.76-1.62-1.7-1.62Z"/>
  </g>
  <g>
    <path class="cls-1" d="M8.01,32.71c-.96,0-1.74-.77-1.75-1.73,0-.97.77-1.76,1.73-1.77l3.33-.03h.02c.96,0,1.74.77,1.75,1.73,0,.97-.77,1.76-1.73,1.77l-3.33.03s-.01,0-.02,0Z"/>
    <g>
      <path class="cls-1" d="M55.15,32.71s-.03,0-.05,0l-11.21-.3-25.64.21c-1.01.03-1.76-.77-1.76-1.74,0-.97.77-1.76,1.74-1.76l25.7-.21,11.27.3c.97.03,1.73.83,1.7,1.8-.03.95-.8,1.7-1.75,1.7Z"/>
      <path class="cls-1" d="M15.13,35.95c-.2,0-.41-.02-.61-.05-2.95-.46-4.93-2.51-4.93-5.1,0-2.82,2.33-5.12,5.2-5.12s5.2,2.3,5.2,5.12c0,1.49-.71,2.98-1.89,4-.87.75-1.93,1.15-2.97,1.15ZM14.79,29.18c-.94,0-1.7.73-1.7,1.62,0,.98,1.06,1.5,1.97,1.64.21.03.5-.08.76-.3.4-.35.67-.87.67-1.34,0-.89-.76-1.62-1.7-1.62Z"/>
    </g>
  </g>
  <g>
    <path class="cls-1" d="M55.15,44.17h-.02l-19.43-.26c-.97-.01-1.74-.81-1.73-1.77.01-.97.78-1.72,1.77-1.73l19.43.26c.97.01,1.74.81,1.73,1.77-.01.96-.79,1.73-1.75,1.73Z"/>
    <path class="cls-1" d="M8.01,44.17c-.95,0-1.73-.77-1.75-1.72-.01-.97.76-1.76,1.72-1.78l20.82-.33h.03c.95,0,1.73.77,1.75,1.72.01.97-.76,1.76-1.72,1.78l-20.82.33h-.03Z"/>
    <path class="cls-1" d="M32.61,47.38c-.2,0-.41-.02-.61-.05-2.95-.46-4.93-2.51-4.93-5.1,0-2.82,2.33-5.12,5.2-5.12s5.2,2.3,5.2,5.12c0,1.49-.71,2.98-1.89,4-.87.75-1.93,1.15-2.97,1.15ZM32.27,40.61c-.94,0-1.7.73-1.7,1.62,0,.99,1.06,1.5,1.97,1.64.21.03.5-.08.76-.3.4-.35.67-.87.67-1.34,0-.89-.76-1.62-1.7-1.62Z"/>
  </g>
</svg>