<?xml version="1.0" encoding="UTF-8"?>
<svg id="flèche" xmlns="http://www.w3.org/2000/svg" viewBox="0 0 64 64">
  <defs>
    <style>
      .cls-1 {
        fill: #2b222b;
      }
    </style>
  </defs>
  <path class="cls-1" d="M55.09,32.2s-.04,0-.07,0c-.17,0-16.97-.64-22.65-.7-5.28-.04-21.56.26-21.72.26-.99-.03-1.76-.75-1.78-1.72-.02-.97.75-1.76,1.72-1.78.17,0,16.51-.31,21.82-.26,5.73.05,22.58.69,22.75.7.97.04,1.72.85,1.68,1.81-.04.94-.81,1.68-1.75,1.68Z"/>
  <path class="cls-1" d="M20.95,40.94c-.38,0-.77-.12-1.09-.38l-11.92-9.52c-.48-.38-.74-.95-.73-1.55.01-.6.3-1.16.78-1.52l10.21-7.67c.77-.58,1.87-.43,2.45.35.58.77.42,1.87-.35,2.45l-8.61,6.46,10.35,8.26c.76.6.88,1.7.28,2.46-.35.43-.85.66-1.37.66ZM10.09,30.76h0s0,0,0,0Z"/>
</svg>