<?xml version="1.0" encoding="UTF-8"?>
<svg id="Horloge" xmlns="http://www.w3.org/2000/svg" viewBox="0 0 64 64">
  <defs>
    <style>
      .cls-1 {
        fill: #2b222b;
      }
    </style>
  </defs>
  <path class="cls-1" d="M32.95,57.86c-.34,0-.69,0-1.03-.02-14.45-.63-25.76-11.98-25.76-25.84,0-7.24,3.3-14.55,8.83-19.57,5.13-4.65,11.49-6.87,17.93-6.23,14.65,1.44,23.96,11.04,24.91,25.69.43,6.64-2.12,13.32-7.01,18.3-4.81,4.91-11.27,7.67-17.88,7.67ZM30.78,9.6c-4.82,0-9.53,1.89-13.43,5.43-4.81,4.36-7.69,10.71-7.69,16.97,0,11.98,9.85,21.79,22.42,22.34,5.98.26,11.89-2.15,16.25-6.6,4.19-4.28,6.38-9.97,6.01-15.63h0c-.84-12.98-8.77-21.15-21.76-22.43-.6-.06-1.21-.09-1.8-.09Z"/>
  <path class="cls-1" d="M41.85,49.22c-.49,0-.98-.21-1.33-.61-1.97-2.3-3.9-4.37-5.73-6.14-1.35-1.3-2.61-2.7-3.83-4.05-.6-.67-1.21-1.33-1.82-1.99-.06-.07-.17-.18-.28-.34-.17-.23-.32-.5-.43-.78-.15-.39-.24-.8-.25-1.23-.3-3.91-.41-7.88-.32-11.78.05-2.15.16-4.32.32-6.44.08-.96.93-1.69,1.88-1.61.96.08,1.68.92,1.61,1.88-.16,2.06-.27,4.16-.31,6.25-.09,3.81.02,7.67.31,11.49v.14c.65.72,1.27,1.4,1.88,2.08,1.18,1.31,2.4,2.66,3.66,3.88,1.91,1.85,3.92,4,5.96,6.38.63.73.54,1.84-.19,2.47-.33.28-.74.42-1.14.42Z"/>
</svg>