<?xml version="1.0" encoding="UTF-8"?>
<svg id="position" xmlns="http://www.w3.org/2000/svg" viewBox="0 0 64 64">
  <defs>
    <style>
      .cls-1 {
        fill: #2b222b;
      }
    </style>
  </defs>
  <path class="cls-1" d="M31.35,57.09s-.03,0-.04,0c-.89-.01-1.71-.42-2.26-1.11-1.86-2.34-3.6-4.73-5.44-7.25-1.25-1.71-2.51-3.45-3.83-5.18-1.37-1.81-2.45-3.88-3.49-5.88-.45-.86-.9-1.73-1.37-2.57-.13-.23-.26-.47-.39-.71l-.22-.41c-.19-.3-.39-.68-.58-1.07l-.34-.63-1.63-7.37c0-4.81,2.59-8.69,4.88-12.11,2.78-4.16,8.38-6.54,15.38-6.54,6.46,0,12.78,2.77,15.72,6.9,2.24,3.15,4.54,7,4.54,11.75,0,2.95-.74,5.8-2.21,8.45l-.1.18c-.25.44-.49.81-.74,1.18l-.68,1.09c-4.48,6.98-9.5,13.78-14.92,20.22-.56.67-1.38,1.05-2.25,1.05ZM16.68,31.04l.13.23c.18.34.34.65.52.95l.27.49c.12.22.24.44.37.66.49.88.96,1.78,1.43,2.67,1.02,1.96,1.98,3.81,3.18,5.38,1.33,1.75,2.6,3.5,3.87,5.23,1.68,2.3,3.27,4.49,4.93,6.6,5.16-6.17,9.94-12.68,14.22-19.34l.7-1.11c.23-.34.43-.65.61-.96l.09-.18c1.18-2.13,1.78-4.41,1.78-6.77,0-3.76-1.96-7.02-3.88-9.72-2.28-3.2-7.58-5.44-12.88-5.44-5.72,0-10.38,1.87-12.47,4.99-2.17,3.25-4.22,6.31-4.29,9.98l1.43,6.31ZM32,32.79c-5.15,0-9.33-3.89-9.33-8.68s4.19-8.68,9.33-8.68,9.33,3.89,9.33,8.68-4.19,8.68-9.33,8.68ZM32,18.93c-3.22,0-5.83,2.32-5.83,5.18s2.62,5.18,5.83,5.18,5.83-2.32,5.83-5.18-2.62-5.18-5.83-5.18Z"/>
</svg>