<?xml version="1.0" encoding="UTF-8"?>
<svg id="mail" xmlns="http://www.w3.org/2000/svg" viewBox="0 0 64 64">
  <defs>
    <style>
      .cls-1 {
        fill: #2b222b
      }
    </style>
  </defs>
  <path class="cls-1" d="M52.73,49.2h-.05s-20.38-.55-20.38-.55c-.56-.01-1.11-.01-1.67,0l-19.32.55h0c-2.6,0-4.67-2.07-4.67-4.62l.32-13.21c.01-.61.01-1.22,0-1.83l-.31-10.06c0-2.6,2.07-4.68,4.62-4.68l10-.4,31.48.4c2.53,0,4.6,2.07,4.6,4.62v25.15c0,2.55-2.07,4.62-4.62,4.62ZM21.32,17.9l-9.98.4c-.69,0-1.19.5-1.19,1.12l.31,10c.02.68.02,1.35,0,2.03l-.32,13.17c0,.58.5,1.08,1.12,1.08l19.27-.55c.62-.02,1.24-.02,1.86,0l20.35.55c.61,0,1.1-.51,1.1-1.12v-25.15c0-.62-.5-1.12-1.12-1.12l-31.41-.4Z"/>
  <path class="cls-1" d="M30.59,33.85c-1.03,0-2.06-.3-2.98-.91l-.11-.08-18.46-14.2c-.77-.59-.91-1.69-.32-2.45s1.69-.91,2.45-.32l18.4,14.16c.57.36,1.23.4,1.83.11l9.68-7.02,11.83-6.64c.84-.47,1.91-.17,2.38.67.47.84.17,1.91-.67,2.38l-11.74,6.59-9.74,7.06c-.81.43-1.69.65-2.56.65Z"/>
</svg>