<?xml version="1.0" encoding="UTF-8"?>
<svg id="mâle" xmlns="http://www.w3.org/2000/svg" viewBox="0 0 64 64">
  <defs>
    <style>
      .cls-1 {
        fill: #2b222b;
      }
    </style>
  </defs>
  <path class="cls-1" d="M24.94,55.67c-4.77,0-9.49-2.1-12.64-5.63-2.72-3.06-3.97-6.85-3.52-10.69,1.12-9.4,7.74-15.98,16.09-16.01h.06c3.69,0,7.24,1.22,10.17,3.46.22-.23.44-.47.66-.69.91-.95,1.84-1.93,2.61-2.99,2.23-3.09,5.55-6.04,8.64-8.7l-12.56,1.86c-.96.15-1.85-.52-1.99-1.47s.52-1.85,1.47-1.99l17.19-2.55c.73-.11,1.48.09,2.05.55.58.46.94,1.14,1,1.87l1.09,13.53c.08.96-.64,1.81-1.6,1.88-.97.08-1.81-.64-1.88-1.6l-.87-10.81c-.19.17-.39.33-.59.5-3.22,2.76-6.87,5.88-9.11,8.98-.91,1.25-1.93,2.32-2.92,3.36-.22.23-.43.45-.64.68,2.5,2.89,3.88,6.48,3.89,10.25.02,4.3-1.74,8.38-4.94,11.47-3.15,3.05-7.28,4.74-11.61,4.75h-.06ZM24.94,26.84h-.05c-6.64.02-11.71,5.22-12.63,12.92-.34,2.83.61,5.65,2.65,7.95,2.5,2.81,6.29,4.46,10.07,4.46h0c3.37-.01,6.72-1.38,9.19-3.77,2.51-2.42,3.88-5.6,3.87-8.94-.01-3.34-1.41-6.51-3.94-8.92,0,0,0,0-.01-.01-.02-.02-.04-.04-.06-.06-2.46-2.31-5.77-3.63-9.1-3.63Z"/>
</svg>