<?xml version="1.0" encoding="UTF-8"?>
<svg id="burger" xmlns="http://www.w3.org/2000/svg" viewBox="0 0 64 64">
  <defs>
    <style>
      .cls-1 {
        fill: #2b222b;
      }
    </style>
  </defs>
  <path class="cls-1" d="M31.94,15.76c-6.84,0-14.01-.18-21.68-.53-.97-.04-1.71-.86-1.67-1.83.04-.96.89-1.72,1.83-1.67,11.57.54,21.98.67,31.83.39,3.52-.1,7.5-.21,11.32-.39.95-.06,1.78.7,1.83,1.67.04.97-.7,1.78-1.67,1.83-3.85.18-7.85.29-11.39.39-3.4.1-6.86.14-10.42.14Z"/>
  <path class="cls-1" d="M31.95,34.02c-6.84,0-14.01-.18-21.69-.54-.97-.04-1.71-.86-1.67-1.83.04-.97.89-1.71,1.83-1.67,11.57.54,21.98.67,31.83.39,3.7-.1,7.53-.21,11.32-.39.95-.05,1.78.7,1.83,1.67.04.96-.7,1.78-1.67,1.83-3.82.18-7.67.29-11.39.39-3.4.1-6.86.14-10.41.14Z"/>
  <path class="cls-1" d="M31.95,52.27c-6.84,0-14.01-.18-21.69-.54-.97-.04-1.71-.86-1.67-1.83.04-.97.89-1.7,1.83-1.67,11.57.54,21.98.67,31.83.39,4.06-.11,7.72-.22,11.32-.39.95-.04,1.78.7,1.83,1.67.04.96-.7,1.78-1.67,1.83-3.63.17-7.31.28-11.39.39-3.4.1-6.86.14-10.41.14Z"/>
</svg>