<?xml version="1.0" encoding="UTF-8"?>
<svg id="ok_chat" data-name="ok chat" xmlns="http://www.w3.org/2000/svg" viewBox="0 0 64 64">
  <defs>
    <style>
      .cls-1 {
        fill: #2b222b;
      }
    </style>
  </defs>
  <path class="cls-1" d="M31.23,56.87c-3.14,0-6.28-.53-9.28-1.6l-3.22-1.15c-7.02-2.5-11.74-9.52-11.74-17.45v-15.54c0-3.6.66-7.11,1.97-10.42l.28-.72c.64-1.62,1.99-2.79,3.61-3.14,1.57-.34,3.22.14,4.39,1.29l6.92,6.72c.23.22.53.34.85.34l4.06-.23c1.49-.09,3-.08,4.49.01l3.48.22c.33-.01.64-.15.86-.4l6.29-6.92c1.03-1.13,2.47-1.72,3.96-1.61,1.5.11,2.86.91,3.73,2.2,3.1,4.6,4.74,10.03,4.74,15.7v11.96c0,7.75-4.57,14.71-11.38,17.32l-4.13,1.58c-3.18,1.22-6.53,1.83-9.88,1.83ZM13.87,10.24c-.11,0-.2.01-.27.03-.49.1-.89.47-1.09,1l-.28.72c-1.14,2.9-1.72,5.98-1.72,9.14v15.54c0,6.46,3.78,12.15,9.41,14.15l3.22,1.15c5.42,1.93,11.36,1.86,16.73-.2l4.13-1.58c5.46-2.09,9.13-7.74,9.13-14.05v-11.96c0-4.98-1.43-9.73-4.14-13.75-.27-.4-.65-.64-1.08-.67-.41-.02-.81.14-1.11.47l-6.29,6.92c-.89.98-2.16,1.54-3.49,1.54h-.11s-3.55-.23-3.55-.23c-1.35-.08-2.72-.09-4.07-.01l-4.16.24h-.01c-1.33,0-2.49-.47-3.38-1.33l-6.92-6.72c-.33-.32-.68-.41-.95-.41ZM10.59,11.35h0,0Z"/>
  <path class="cls-1" d="M16.57,31.35c-.38,0-.77-.12-1.09-.38-.75-.6-.88-1.69-.28-2.45,2.28-3.09,4.66-3.77,6.26-3.82,1.71-.04,4.19.57,6.34,3.79.61.75.49,1.86-.27,2.47-.75.61-1.85.49-2.46-.26-.04-.05-.1-.13-.19-.26-1.01-1.51-2.09-2.27-3.34-2.23-.82.02-2.1.45-3.5,2.34l-.11.15c-.35.43-.86.66-1.37.66Z"/>
  <path class="cls-1" d="M37.64,31.35c-.38,0-.77-.13-1.09-.38-.75-.6-.87-1.7-.28-2.45,2.29-3.08,4.66-3.77,6.26-3.81,1.71-.04,4.19.57,6.34,3.79.61.75.49,1.86-.27,2.47-.75.61-1.85.49-2.46-.26-.04-.05-.1-.13-.19-.26-1.01-1.51-2.1-2.27-3.34-2.23-.82.02-2.1.45-3.5,2.34l-.12.15c-.35.43-.85.66-1.37.66Z"/>
</svg>