<?xml version="1.0" encoding="UTF-8"?>
<svg id="ok_chien" data-name="ok chien" xmlns="http://www.w3.org/2000/svg" viewBox="0 0 64 64">
  <defs>
    <style>
      .cls-1 {
        fill: #2b222b;
      }
    </style>
  </defs>
  <path class="cls-1" d="M28.87,29.22c-.52,0-1.03-.23-1.37-.66-.03-.04-.09-.12-.17-.24-.76-1.13-1.58-1.71-2.44-1.71-.02,0-.03,0-.05,0-.61.02-1.57.34-2.65,1.81l-.1.13c-.6.76-1.7.88-2.46.27-.75-.6-.88-1.69-.28-2.45,1.96-2.64,4.01-3.23,5.4-3.27,1.47-.03,3.64.49,5.49,3.26.6.75.48,1.85-.28,2.46-.32.26-.71.38-1.09.38Z"/>
  <path class="cls-1" d="M43.25,29.22c-.52,0-1.03-.23-1.37-.66-.03-.04-.09-.12-.17-.24-.76-1.13-1.58-1.71-2.44-1.71-.02,0-.03,0-.05,0-.61.02-1.57.34-2.65,1.81l-.1.13c-.6.76-1.71.88-2.46.27-.75-.6-.88-1.69-.28-2.45,1.96-2.64,4.01-3.23,5.4-3.27,1.47-.03,3.64.49,5.49,3.26.6.75.48,1.85-.28,2.46-.32.26-.71.38-1.09.38Z"/>
  <path class="cls-1" d="M34.23,56c-.94,0-1.9-.03-2.88-.06-3.44-.12-8.63-.3-13.32-3.84h0c-3-1.8-4.76-4.89-5.22-9.17-1.07-9.92,2.35-23.12,7.62-29.45,1.45-1.85,3.39-3.17,5.61-3.81,1.77-.51,3.61-.81,5.45-.88,2.6-.11,5.16.23,7.63.98h0c1.07.33,2.04.89,2.89,1.67,5.62,5.21,9.61,20.12,8.22,30.68-.79,5.96-3.2,10.16-6.98,12.15-2.69,1.42-5.71,1.74-9.02,1.74ZM32.42,12.26c-.26,0-.53,0-.79.02-1.56.06-3.12.32-4.62.75-1.5.43-2.83,1.34-3.84,2.63-4.21,5.05-7.95,17.02-6.88,26.89.34,3.21,1.53,5.36,3.61,6.58l.17.12c3.88,2.93,8.05,3.08,11.4,3.19,4.81.17,7.69.01,10.15-1.28,3.45-1.82,4.7-6.17,5.14-9.51,1.33-10.1-2.8-23.64-7.12-27.65-.45-.42-.97-.72-1.53-.89h0c-1.85-.56-3.76-.85-5.68-.85Z"/>
  <path class="cls-1" d="M11.14,46.97c-.2,0-.42-.03-.65-.1-1.01-.28-3.71-1.02-3.29-18.19.14-5.98.45-9.85,3.5-13.13,2.97-3.19,8.2-3.4,9.71-3.39,2.72.02,3.27.64,3.54.93l-2.6,2.34c.25.28.5.36.5.36-.86-.28-6.25-.37-8.58,2.14-2.14,2.3-2.42,5.07-2.56,10.83-.11,4.53.08,9,.44,11.9.15-.5.29-.98.41-1.38.8-2.75,1.24-4.22,1.86-4.97l2.71,2.22c-.23.38-.82,2.4-1.21,3.73-1.22,4.21-1.95,6.71-3.76,6.71Z"/>
  <path class="cls-1" d="M52.97,47.06c-1.79,0-2.69-2.48-4.2-6.66-.47-1.3-1.11-3.07-1.38-3.46l2.73-2.19c.56.68,1.05,2,1.94,4.46.23.62.51,1.41.8,2.17.42-2.85.64-7.65.53-12.52-.14-5.76-.42-8.53-2.56-10.83-2.33-2.51-7.72-2.41-8.58-2.14,0,0,.25-.08.5-.36l-2.6-2.34c.27-.3.82-.91,3.54-.93,1.52,0,6.74.2,9.7,3.39,3.04,3.28,3.35,7.15,3.5,13.13.42,17.17-2.28,17.91-3.29,18.19-.22.06-.43.09-.62.09Z"/>
  <path class="cls-1" d="M39.68,13.88c-.42-.18-.72-.4-.92-.55-.04-.03-.09-.07-.13-.1l1.83-2.98c.14.09.27.18.41.28.05.04.1.08.16.11l-1.35,3.23Z"/>
  <path class="cls-1" d="M31.83,47.98c-.36,0-.72-.08-1.06-.24-1.02-.48-3.24-2.27-4.27-3.34-.82-.86-1.5-1.85-2-2.93-.21-.44-.34-1.17.16-2.13.29-.55,1.41-2.17,2.7-2.38,1.43-.23,2.88-.36,4.34-.37,1.5-.02,3.01.09,4.5.32,1.4.21,2.5,1.91,2.81,2.7.46,1.17.06,1.95-.23,2.31-.5.64-1.04,1.27-1.6,1.87-.89.95-2.85,2.85-3.78,3.62-.46.38-1.01.57-1.57.57ZM28,40.62c.29.49.63.94,1.03,1.35.7.73,1.93,1.73,2.69,2.26.88-.79,2.21-2.08,2.91-2.83.29-.31.57-.63.84-.95-.04-.05-.08-.09-.11-.13-1.2-.17-2.41-.25-3.63-.23-1.17,0-2.34.1-3.49.27-.07.07-.16.16-.24.26ZM28.36,40.26h0ZM35.24,40.22h0ZM36.03,39.76s0,0,0,0c0,0,0,0,0,0Z"/>
</svg>