<?xml version="1.0" encoding="UTF-8"?>
<svg id="ok_enfant" data-name="ok enfant" xmlns="http://www.w3.org/2000/svg" viewBox="0 0 64 64">
  <defs>
    <style>
      .cls-1 {
        fill: #2b222b;
      }
    </style>
  </defs>
  <path class="cls-1" d="M27.36,40.07c-.52,0-1.03-.23-1.37-.66-.03-.04-.09-.12-.17-.24-.77-1.16-1.62-1.71-2.49-1.71-.61.02-1.57.34-2.65,1.81l-.1.13c-.6.76-1.71.88-2.46.27-.75-.6-.88-1.69-.28-2.45,1.96-2.64,4.01-3.23,5.4-3.26,1.46-.06,3.64.49,5.49,3.26.6.75.48,1.85-.28,2.46-.32.26-.71.38-1.09.38Z"/>
  <path class="cls-1" d="M45.74,40.07c-.52,0-1.03-.23-1.37-.66-.03-.04-.09-.12-.17-.24-.77-1.16-1.62-1.71-2.49-1.71-.61.02-1.57.34-2.65,1.81l-.1.13c-.6.76-1.71.88-2.46.27-.75-.6-.88-1.69-.28-2.45,1.96-2.64,4.01-3.23,5.4-3.26,1.47-.06,3.64.49,5.49,3.26.6.75.48,1.85-.28,2.46-.32.26-.71.38-1.09.38Z"/>
  <path class="cls-1" d="M34.83,56.94c-.99,0-2.01-.08-3.05-.25-12.42-1.97-20.37-10.04-20.73-21.07-.18-5.61,1.83-10.89,5.68-14.87,3.96-4.09,9.4-6.34,15.33-6.34,11.98,0,21.01,9.09,21.01,21.15,0,5.46-2.24,11.32-5.99,15.68-3.23,3.76-7.42,5.69-12.24,5.69ZM32.05,17.92c-4.97,0-9.52,1.87-12.81,5.27-3.18,3.29-4.85,7.66-4.69,12.32.31,9.39,6.96,16.02,17.78,17.73,4.85.77,9.02-.71,12.09-4.27,3.22-3.74,5.15-8.75,5.15-13.4,0-10.06-7.53-17.65-17.51-17.65Z"/>
  <path class="cls-1" d="M49.77,33.81c-5.86,0-10.18-5.27-12.37-8.68-.15-.23-.36-.31-.48-.33-.13-.03-.34-.03-.54.1-.58.38-1.28.77-2.08,1.23-1.4.79-3.13,1.77-5.17,3.18-7.06,4.87-16.6,3.17-17.01,3.1l.64-3.44-.32,1.72.32-1.72c.08.02,8.54,1.5,14.38-2.54,2.17-1.5,3.98-2.52,5.43-3.35.75-.43,1.41-.8,1.9-1.12.95-.62,2.08-.83,3.19-.59,1.11.24,2.07.9,2.69,1.87,1.96,3.06,5.99,8.01,10.89,6.9l.78,3.41c-.77.17-1.52.25-2.24.25Z"/>
  <path class="cls-1" d="M53.96,44.04c-.9,0-1.78-.26-2.55-.76-.81-.52-1.04-1.61-.52-2.42.52-.81,1.6-1.05,2.42-.52.2.13.43.2.65.2.9,0,1.91-1.22,1.91-2.97s-1.01-2.97-1.91-2.97c-.09,0-.18.01-.27.03-.93.25-1.89-.31-2.14-1.25-.25-.93.31-1.89,1.25-2.14.37-.1.76-.15,1.15-.15,2.98,0,5.41,2.9,5.41,6.47s-2.43,6.47-5.41,6.47Z"/>
  <path class="cls-1" d="M10.17,44.04c-3.03,0-5.41-2.84-5.41-6.47s2.43-6.47,5.41-6.47c.17,0,.34,0,.48.03.95.16,1.6,1.06,1.44,2.01-.15.92-.99,1.56-1.91,1.46-1.05.02-1.93,1.4-1.93,2.97s.89,2.97,1.91,2.97c.16,0,.31-.04.5-.11.9-.37,1.92.07,2.28.96s-.07,1.92-.96,2.28c-.61.25-1.21.37-1.82.37ZM10.09,34.58h.03s-.02,0-.03,0Z"/>
  <path class="cls-1" d="M20.28,18.94c-.87-2.38-2.65-8.17-.42-10.52.53-.55,1.72-1.39,3.83-.74,5.6,1.74,9.6,7.23,9.77,7.46l-2.84,2.04s-3.49-4.78-7.96-6.16c-.13-.04-.23-.06-.3-.07-.32.95.24,4.09,1.22,6.78l-3.29,1.2Z"/>
  <path class="cls-1" d="M43.99,18.94l-3.29-1.2c1-2.76,1.57-5.97,1.25-6.94-.07.01-.16.03-.28.07-4.51,1.4-8.18,6.3-8.22,6.35l-2.81-2.09c.18-.24,4.41-5.87,9.99-7.6,2.09-.65,3.28.18,3.81.74,2.25,2.36.43,8.26-.45,10.68Z"/>
</svg>