<?xml version="1.0" encoding="UTF-8"?>
<svg id="recherche" xmlns="http://www.w3.org/2000/svg" viewBox="0 0 64 64">
  <defs>
    <style>
      .cls-1 {
        fill: #EDB183;
      }
    </style>
  </defs>
  <path class="cls-1" d="M26.19,44.19c-.56,0-1.12-.02-1.7-.07-8.59-.7-15.71-7.69-16.55-16.26-.64-6.48,2.09-12.64,7.32-16.49,5.26-3.87,12.19-4.59,18.52-1.91,3.46,1.47,7.33,5.33,8.79,8.8h0c2.47,5.83,1.99,12.12-1.36,17.71-3.12,5.22-8.66,8.21-15.02,8.21ZM25.99,11.34c-3.1,0-6.09.96-8.66,2.85-4.22,3.1-6.43,8.09-5.91,13.32.69,6.91,6.43,12.55,13.36,13.12,5.8.47,10.69-1.88,13.43-6.45,1.95-3.26,3.73-8.43,1.13-14.55h0c-1.12-2.64-4.29-5.82-6.93-6.94-2.13-.9-4.31-1.35-6.42-1.35Z"/>
  <path class="cls-1" d="M55.29,57.04c-.47,0-.94-.19-1.28-.56-.65-.7-1.3-1.42-1.96-2.14-2.23-2.45-4.53-4.99-7.15-7.24-1.92-1.65-3.48-3.2-5-4.69-1.13-1.11-2.19-2.16-3.37-3.23-.71-.65-.77-1.76-.12-2.47.65-.71,1.75-.77,2.47-.12,1.23,1.12,2.37,2.24,3.47,3.33,1.48,1.46,3,2.96,4.83,4.54,2.78,2.4,5.16,5.01,7.46,7.54.65.71,1.29,1.42,1.93,2.11.66.71.62,1.82-.09,2.47-.34.31-.76.47-1.19.47Z"/>
</svg>