<?xml version="1.0" encoding="UTF-8"?>
<svg id="santé" xmlns="http://www.w3.org/2000/svg" viewBox="0 0 64 64">
  <defs>
    <style>
      .cls-1 {
        fill: #2b222b;
      }
    </style>
  </defs>
  <path class="cls-1" d="M32.37,56.43c-3.4,0-12.51-8.24-13.54-9.18-4.74-4.33-7.8-9.88-8.95-11.97l-.16-.3c-2.57-4.63-5.23-9.42-.97-16.95,4.32-7.65,11.78-12.06,17.72-10.5,1.87.49,4.54,1.85,6.27,5.55,2.02-4.26,5.28-5.5,7.01-5.85,6.1-1.25,13.15,3.49,16.38,11.03,2.12,4.96,1.74,10.88-1.07,16.66-.21.43-.42.88-.65,1.37-1.16,2.47-2.59,5.54-4.82,8.1-3.92,4.5-11.38,12.05-17.21,12.05ZM12.77,33.29l.17.31c1.08,1.95,3.93,7.13,8.25,11.07,5.36,4.9,10.15,8.12,11.23,8.27,3.1,0,8.69-4.16,14.52-10.85,1.91-2.19,3.23-5.01,4.29-7.28.23-.5.46-.98.67-1.42,2.37-4.85,2.72-9.73,1-13.74-2.84-6.64-8.56-9.78-12.46-8.98-3.81.78-5.99,5.1-5.99,11.84h-3.5c0-6.55-1.91-10.67-5.39-11.58-4.29-1.13-10.34,2.75-13.78,8.83-3.14,5.56-1.75,8.61.98,13.53h0Z"/>
  <path class="cls-1" d="M38.4,39.93c-.5,0-1.03-.15-1.45-.69l-.15-.19-2.82-6.99-4.47,6.01c-.54.54-1.3.76-2.04.6-.74-.16-1.34-.68-1.61-1.39l-.08-.31-1.66-9.37-.27.83c-.32.97-.71,1.93-1.2,2.95-.13.28-.26.57-.38.86l-1.37,3.42c-.37.77-1.15,1.26-2,1.26h-6.81v-3.5h5.94l.99-2.48c.14-.36.3-.72.47-1.08.42-.88.76-1.7,1.02-2.52l1.97-6.01c.38-.8,1.21-1.31,2.1-1.26.89.04,1.67.6,1.98,1.44l.08.31,2.04,11.5,4.07-5.46c.45-.45,1.08-.69,1.71-.64.64.04,1.22.36,1.61.86l.14.19,3.21,7.97c.09,0,.17,0,.25,0h0s11.72-.15,11.72-.15l.04,3.5-11.83.15c-.05.01-.11.03-.16.04-.31.07-.68.16-1.07.16Z"/>
</svg>