<?xml version="1.0" encoding="UTF-8"?>
<svg id="souris" xmlns="http://www.w3.org/2000/svg" viewBox="0 0 64 64">
  <defs>
    <style>
      .cls-1 {
        fill: #2b222b;
      }
    </style>
  </defs>
  <path class="cls-1" d="M36.83,57.74c-.4,0-.81-.06-1.2-.18-.99-.31-1.79-.97-2.25-1.86l-5.81-11.22c-1.26,1.09-3.34,2.91-6.48,5.7-.89.79-2.19,1-3.3.52-1.07-.46-1.77-1.45-1.81-2.58,0-.18-.11-13-.67-17.14-.43-3.2-.33-9.36-.23-12.75.16-5.3.29-7.57.5-8.65.07-1.05.71-1.96,1.71-2.4,1.08-.47,2.33-.28,3.2.49,2.87,2.54,8.39,7.62,13.14,13.09,5.53,6.37,11.74,12.65,14.95,15.83.85.84,1.08,2.07.6,3.14-.5,1.12-1.66,1.81-2.91,1.72-4.09-.26-6.98-.42-8.89-.5,1.18,1.88,3.02,4.88,5.99,9.75.48.78.61,1.7.39,2.58-.23.9-.82,1.66-1.66,2.14-1.01.57-2.33,1.32-3.41,1.88-.57.3-1.22.46-1.86.46ZM29,39.63l7.48,14.45c.03.06.1.11.19.14.06.02.22.05.38-.03,1.03-.54,2.28-1.25,3.25-1.8-4.55-7.47-6.74-10.96-7.35-11.87l-.9-.51.38-1.36c.45-1.5.46-1.57,12.46-.81-3.45-3.45-8.94-9.08-13.9-14.8-4.17-4.8-8.97-9.31-11.93-11.97v1.06s-.2-.06-.2-.06c-.26,4.28-.64,14.34-.08,18.43.5,3.66.65,13.18.69,16.43,7.55-6.69,7.67-6.72,8.14-6.87l1.4-.43Z"/>
</svg>