<?xml version="1.0" encoding="UTF-8"?>
<svg id="téléphone" xmlns="http://www.w3.org/2000/svg" viewBox="0 0 64 64">
  <defs>
    <style>
      .cls-1 {
        fill: #2b222b;
      }
    </style>
  </defs>
  <path class="cls-1" d="M44.31,57.33c-6.31,0-12.03-4.96-19.69-11.6-.51-.44-1.03-.87-1.57-1.31-2.38-1.96-5.09-4.19-7.38-7.95-4.69-7.72-7.58-14.68-7.93-19.1-.26-3.28.12-5.34,1.33-7.09,2.21-3.22,6.25-3.95,8.46-4.1,1.34-.09,2.67.28,3.76,1.04h0c2.03,1.41,3.79,3.13,5.22,5.1,1.83,2.51,3.73,5.11,3.25,8.6-.44,3.23-2.72,5.4-4.32,6.56,2.96,7.73,6.07,8.96,8.59,9.96.65.26,1.33.53,1.96.88.45.25.71.36.86.41.17-.18.42-.51.63-.79.25-.32.53-.69.86-1.1,1.16-1.41,2.96-2.11,4.79-1.88,6.57.84,13.23,6.1,14.55,11.48l.05.22v.23c-.14,5.85-9.21,9.91-11.54,10.28-.64.1-1.27.15-1.9.15ZM17.92,9.66c-.05,0-.11,0-.16,0-1.58.11-4.43.58-5.8,2.59-.51.75-.96,1.85-.72,4.83.11,1.44.99,6.95,7.44,17.56,1.98,3.26,4.33,5.19,6.61,7.07.56.46,1.11.91,1.64,1.37,8.47,7.35,13.53,11.47,18.75,10.64,1.6-.25,8.21-3.42,8.56-6.68-1.13-3.91-6.54-7.97-11.53-8.6-.63-.08-1.25.16-1.64.63-.3.37-.56.71-.78,1-1.49,1.96-2.72,3.11-5.97,1.32-.44-.24-.96-.45-1.56-.69-3.15-1.25-7.46-2.96-11.08-13.36l-.49-1.4,1.3-.71c.8-.44,3.46-2.09,3.82-4.78.27-1.99-.82-3.6-2.61-6.06-1.21-1.66-2.69-3.1-4.4-4.29-.41-.28-.87-.43-1.36-.43Z"/>
</svg>