<?xml version="1.0" encoding="UTF-8"?>
<svg id="tick" xmlns="http://www.w3.org/2000/svg" viewBox="0 0 64 64">
  <defs>
    <style>
      .cls-1 {
        fill: #EDB183;;
      }
    </style>
  </defs>
  <path class="cls-1" d="M30.9,56.43c-.54,0-.99-.13-1.32-.28-4.56-2.04-8.95-4.5-13.06-7.31-1.25-.85-2.76-2.11-4.5-3.56-1.48-1.23-3.17-2.63-5.08-4.11-.76-.59-.9-1.69-.31-2.46.59-.76,1.69-.9,2.46-.31,1.96,1.52,3.67,2.94,5.17,4.19,1.68,1.39,3.13,2.6,4.24,3.36,3.91,2.68,8.1,5.03,12.44,6.97.03,0,.08-.03.14-.06.47-.23.8-.65.99-.97,2.92-4.83,6.04-9.71,9.33-14.88,2.69-4.21,5.46-8.57,8.32-13.18,1.11-1.8,2.37-3.46,3.59-5.06.43-.56.85-1.13,1.27-1.69.57-.78,1.67-.94,2.45-.37.78.57.94,1.67.37,2.45-.43.58-.86,1.15-1.3,1.73-1.17,1.54-2.37,3.14-3.4,4.79-2.87,4.64-5.66,9-8.35,13.22-3.28,5.15-6.39,10.01-9.29,14.81-.62,1.03-1.47,1.83-2.46,2.31-.63.31-1.2.42-1.7.42Z"/>
</svg>