<?xml version="1.0" encoding="UTF-8"?>
<svg id="web" xmlns="http://www.w3.org/2000/svg" viewBox="0 0 64 64">
  <defs>
    <style>
      .cls-1 {
        fill: #2b222b;
      }
    </style>
  </defs>
  <path class="cls-1" d="M34.65,57.99c-.86,0-1.75-.08-2.68-.25-1.47,0-2.94-.13-4.38-.39l-.13-.02c-3.6-.64-7.07-2.07-10.07-4.16h0l-.47-.33c-6.27-4.54-10.15-12.1-10.64-20.74-.45-7.95,3.52-15.78,10.63-20.94l.48-.33c4.31-2.99,9.36-4.57,14.63-4.57h.14c.3,0,.6.01.9.02,5.11.21,9.96,1.9,14.06,4.9,7.23,5.23,11.2,13.06,10.62,20.95-.66,8.98-4.33,16.15-10.64,20.71l-.47.33c-3.49,2.51-7.28,4.82-11.97,4.82ZM27.92,53.86l.17.03c1.28.23,2.6.35,3.92.35l.46.03c4.9.95,8.74-1.48,12.56-4.27l.46-.34c5.17-3.95,8.19-10.09,8.75-17.8.49-6.67-2.95-13.35-9.19-17.86-3.55-2.59-7.74-4.05-12.12-4.23-.26,0-.52-.02-.78-.02h-.14c-4.72,0-9.23,1.46-13.04,4.24l-.46.33c-5.94,4.5-9.12,10.88-8.74,17.57.42,7.44,3.66,13.93,8.9,17.88l.32.23c2.64,1.93,5.73,3.26,8.94,3.85Z"/>
  <path class="cls-1" d="M32.14,57.74l-.02-3.5c4.68-.03,9.14-1.49,12.9-4.23l.46-.34h.57v1.76s1.03,1.41,1.03,1.41c-4.36,3.18-9.52,4.88-14.94,4.91Z"/>
  <path class="cls-1" d="M30.72,57c-.53-.4-1.18-.85-1.87-1.34-2.38-1.67-5.08-3.57-6.49-5.5-3.81-5.15-5.83-11.24-5.85-17.61-.72-5.7,1.22-11.54,5.91-17.87,2.21-2.98,4.91-5.52,8.04-7.55.09-.07.18-.13.28-.18.05-.04.19-.12.33-.21l1.83,2.98-.03.02c-.11.06-.21.13-.31.19l-.15.1c-2.8,1.8-5.21,4.07-7.18,6.73-4.21,5.68-5.88,10.58-5.23,15.44v.23c.01,5.67,1.8,11.08,5.18,15.65,1.08,1.47,3.64,3.27,5.69,4.71.72.51,1.4.98,1.96,1.41l-2.11,2.79Z"/>
  <path class="cls-1" d="M33.48,56.23l-.89-.78-1.88-1.36c.1-.14.32-.44,6.8-6.85,3.84-4.16,6.16-9.63,6.45-15.36.02-.42.03-.85.03-1.28,0-5.33-1.67-10.39-4.83-14.64-1.79-2.42-4.64-4.15-7.4-5.83l-.26-.16,1.82-2.99.26.16c3.05,1.85,6.2,3.77,8.39,6.73,3.61,4.85,5.52,10.64,5.52,16.72,0,.49-.01.96-.03,1.45-.34,6.55-2.98,12.8-7.43,17.62-2.37,2.34-6.17,6.13-6.55,6.55Z"/>
  <rect class="cls-1" x="8.02" y="30.23" width="47.96" height="3.5"/>
  <path class="cls-1" d="M32.12,22.75c-7.03,0-14.12-.45-21.1-1.34l.44-3.47c6.83.87,13.78,1.31,20.66,1.31.12,0,.24,0,.36,0,6.76-.01,13.59-.45,20.29-1.31l.44,3.47c-6.85.87-13.83,1.32-20.73,1.33-.12,0-.25,0-.37,0Z"/>
  <path class="cls-1" d="M11.34,46.09l-.44-3.47c7.09-.9,14.29-1.34,21.47-1.33,7.29.02,13.49.42,20.73,1.33l-.44,3.47c-7.08-.9-13.15-1.29-20.29-1.31-6.99.02-14.07.42-21.02,1.31Z"/>
</svg>