<?xml version="1.0" encoding="UTF-8"?>
<svg id="Calque_2" data-name="Calque 2" xmlns="http://www.w3.org/2000/svg" viewBox="0 0 361.85 59.39">
  <defs>
    <style>
      .cls-1 {
        fill: none;
        stroke: #2b222b;
        stroke-miterlimit: 10;
        stroke-width: 1.39px;
      }
    </style>
  </defs>
  <g id="Calque_1-2" data-name="Calque 1">
    <path class="cls-1" d="M333.77,55.45s-59.21-.65-78.94-.41c-30.69.38-92.01,3.59-122.7,3.65-26.03.06-104.06-3.25-104.06-3.25C12.95,55.45.7,43.19.7,28.07h0C.7,12.95,16.02,2.11,31.14,2.11c0,0,76.18,1.34,102.61,1.37,29.26.04,87.76-2.8,117.02-2.79,21.17,0,84.62,2.79,84.62,2.79,13.5-2.79,25.75,9.47,25.75,24.59h0c0,15.12-12.26,27.38-27.38,27.38Z"/>
  </g>
</svg>