<svg width="147" height="48" viewBox="0 0 147 48" fill="none" xmlns="http://www.w3.org/2000/svg" preserveAspectRatio="none">
<path d="M142.759 46.2133C140.885 47.0877 138.333 47.5603 135.689 47.5805C110.789 47.7903 85.1719 48.278 60.0182 47.7903C42.3427 47.4491 24.8072 47.6841 7.46553 47.5552C7.10481 47.5552 5.19889 47.5375 3.65909 46.8147C2.68459 46.3573 2.08159 45.7255 2.08159 45.028C1.49474 37.1934 -0.0827501 29.6015 0.00339291 21.2438C0.0733841 15.0874 1.64011 8.55948 2.07621 2.69117C2.18389 2.10484 2.56076 1.41742 3.6537 0.904387C4.89201 0.323115 6.55026 0.204333 7.46015 0.163897C14.1362 -0.131793 53.4498 0.333224 65.6067 0.320588C65.6067 0.320588 129.25 -0.280902 138.818 0.163897C139.464 0.194224 141.321 0.292788 142.624 0.904387C143.598 1.36182 144.201 1.99364 144.201 2.69117C144.745 5.48632 146.156 8.84759 146.49 11.7641C147.879 23.8469 146.204 34.6485 144.201 45.0305C144.201 45.1392 144.185 45.5486 142.753 46.2133H142.759Z" fill="#EDB183"/>
</svg>
