<svg width="139" height="136" viewBox="0 0 139 136" fill="none" xmlns="http://www.w3.org/2000/svg">
<g clip-path="url(#clip0_927_2401)">
<path d="M138.446 93.779C137.307 91.7661 130.059 89.316 124.437 90.5258C118.632 91.7762 115.937 98.9741 115.775 99.4316C113.742 105.094 115.714 110.757 112.461 112.516C112.461 112.516 112.461 112.516 112.45 112.516C112.45 112.516 112.43 112.516 112.42 112.526C111.393 113.085 110.305 113.532 109.187 113.837C119.577 90.1801 119.587 53.0218 97.8819 30.0457C95.5945 28.7139 94.5473 10.7295 93.8458 8.40135C90.3079 -4.11352 75.2718 13.5862 68.3688 11.3293C59.6256 8.41152 50.3234 7.52704 41.2346 8.87918C39.8316 9.09267 38.4083 8.70635 37.2798 7.85237C33.0811 5.15826 23.7991 -5.42499 20.0681 3.53163C19.3564 4.24328 13.592 23.9153 12.6466 23.59C-4.80919 43.445 0.416359 71.0266 1.85999 79.9629C3.90344 92.7014 7.43119 106.284 16.7131 116.572C31.424 133.662 73.757 140.423 95.2488 130.195L116.446 124.868C128.513 121.838 137.653 111.672 138.883 99.2892C139.137 96.6968 138.975 94.694 138.446 93.7689V93.779Z" fill="#2B222B"/>
<path d="M26.0882 40.9336C24.8174 40.2931 29.982 33.2275 35.0957 33.2885C37.2103 33.258 41.7445 36.2571 41.9275 39.9475C39.3351 37.5482 37.9931 33.9391 35.0957 34.1628C29.9921 33.9493 26.932 41.2488 26.0984 40.9438L26.0882 40.9336Z" fill="#EDB183"/>
<path d="M71.107 44.9805C69.7548 44.4315 75.326 36.1764 80.3787 36.2069C82.4934 36.0747 87.0479 39.45 87.0683 43.4454C86.8243 43.5572 86.5396 43.4454 86.4278 43.2014C84.6486 39.2771 82.6052 37.2439 80.3482 37.1727C75.2345 37.0507 71.9101 45.3262 71.107 44.9703V44.9805Z" fill="#EDB183"/>
</g>
<defs>
<clipPath id="clip0_927_2401">
<rect width="139.001" height="135.013" fill="white"/>
</clipPath>
</defs>
</svg>
