<svg width="330" height="234" viewBox="0 0 330 234" fill="none" xmlns="http://www.w3.org/2000/svg">
<g clip-path="url(#clip0_1670_3371)">
<path d="M329.831 187.922C327.902 165.075 311.329 146.143 289.175 140.244L275.187 136.517C275.056 135.356 274.906 134.476 274.85 133.914C270.205 94.1203 245.243 57.3788 178.314 55.3188C174.101 52.8657 172.172 19.7383 170.88 15.4499C164.363 -7.60251 136.666 25.0005 123.951 20.8432C107.846 15.4686 90.711 13.8394 73.9694 16.3301C71.3852 16.7233 68.7634 16.0117 66.6848 14.4387C58.9507 9.47614 41.8533 -10.0182 34.9807 6.47989C33.6698 7.79075 23.0518 44.0267 21.3102 43.4275C12.7522 59.3638 -5.24406 98.1653 1.46006 147.266C3.83834 164.701 7.63984 179.383 28.8196 201.592C58.8383 233.034 103.969 224.345 139.007 230.974C180.168 238.765 231.497 228.577 259.587 187.997C266.853 177.491 270.917 168.072 273.127 160.113L281.423 162.847H281.479C281.479 162.847 281.479 162.884 281.498 162.884C287.453 166.199 283.67 176.592 287.265 187.079C287.546 187.922 292.34 201.255 302.996 203.708C313.314 206.087 326.722 201.761 328.876 198.09C329.868 196.405 330.224 192.716 329.812 187.941L329.831 187.922Z" fill="#2B222B"/>
<path d="M46.1052 75.3927C43.7644 74.2129 53.2775 61.1979 62.697 61.3103C66.5921 61.2541 74.9442 66.7785 75.2813 73.5762C70.506 69.1567 68.0341 62.5088 62.697 62.9208C53.2962 62.5275 47.6595 75.9732 46.124 75.4114L46.1052 75.3927Z" fill="#EDB183"/>
<path d="M129.008 82.8457C126.517 81.8345 136.779 66.6285 146.086 66.6847C149.981 66.4412 158.371 72.6584 158.408 80.018C157.959 80.224 157.435 80.018 157.229 79.5685C153.951 72.3401 150.187 68.5948 146.03 68.4637C136.611 68.239 130.487 83.4824 129.008 82.827V82.8457Z" fill="#EDB183"/>
</g>
<defs>
<clipPath id="clip0_1670_3371">
<rect width="330" height="233.389" fill="white"/>
</clipPath>
</defs>
</svg>
