<svg width="322" height="221" viewBox="0 0 322 221" fill="none" xmlns="http://www.w3.org/2000/svg">
<path d="M312.709 212.774C308.605 216.8 303.015 218.975 297.224 219.069C242.68 220.034 186.567 222.28 131.468 220.034C92.7507 218.464 54.3396 219.546 16.3531 218.952C15.5629 218.952 11.3881 218.871 8.01514 215.543C5.88054 213.437 4.55968 210.528 4.55968 207.316C3.2742 171.245 -0.181262 136.29 0.00743209 97.8102C0.160746 69.465 3.59262 39.4093 4.54789 12.3906C4.78376 9.69103 5.60929 6.52605 8.00335 4.16395C10.7158 1.48768 14.3482 0.940785 16.3413 0.75461C30.9651 -0.606798 117.08 1.53422 143.71 1.47604C143.71 1.47604 283.12 -1.29332 304.076 0.75461C305.492 0.894241 309.56 1.34804 312.414 4.16395C314.549 6.27006 315.87 9.17905 315.87 12.3906C317.061 25.2599 320.151 40.7358 320.882 54.1637C323.925 109.795 320.257 159.527 315.87 207.328C315.87 207.828 315.834 209.713 312.697 212.774H312.709Z" fill="#F4D2B7"/>
</svg>
