<svg width="77" height="69" viewBox="0 0 77 69" fill="none" xmlns="http://www.w3.org/2000/svg">
<g clip-path="url(#clip0_1929_5856)">
<path d="M33.83 29.6461C33.83 29.6461 29.5804 33.1262 29.9693 36.3065C30.3581 39.4868 30.5582 41.4444 30.276 42.4391C30.0575 43.2054 28.7433 47.4833 28.1588 49.3868C27.9939 49.9171 27.7758 50.4257 27.4956 50.9084C26.4797 52.6517 24.0848 57.7596 28.5939 60.9034C32.0094 62.7096 35.8551 62.7058 40.0281 58.8392C44.4716 55.1878 45.7429 54.2809 45.7429 54.2809C45.7429 54.2809 54.8099 55.7545 57.9614 53.4915C61.1129 51.2284 64.8553 46.1787 62.1126 43.7469C59.3666 41.3163 50.9666 37.5136 49.1619 35.6921C48.3107 34.8337 47.2458 33.4297 46.3572 32.1893C43.6138 28.3581 38.3669 27.0691 34.2259 29.4087C34.0913 29.4838 33.9578 29.5623 33.8267 29.6473L33.83 29.6461Z" fill="#F4D2B7"/>
<path d="M11.0725 34.152C10.5849 34.3444 9.88811 34.6764 9.17611 35.2565C9.08949 35.3291 8.78784 35.577 8.48783 35.8914C5.47159 39.0645 6.89007 42.5269 11.0024 46.6511C13.4251 49.0837 16.3017 50.403 18.8509 49.6842C20.2278 49.295 21.1113 48.4098 21.4716 48.0436C23.6898 45.7731 23.4755 42.7309 23.4296 42.1803C23.2814 41.4317 22.5211 38.0694 19.2764 35.7904C15.6514 33.2431 11.7238 34.0157 11.0771 34.154L11.0725 34.152Z" fill="#F4D2B7"/>
<path d="M19.772 15.7545C19.2844 15.9469 18.5876 16.2789 17.8756 16.859C17.789 16.9316 17.4873 17.1795 17.1873 17.494C14.1711 20.667 15.5895 24.1295 19.7018 28.2537C22.1245 30.6862 25.0011 32.0056 27.5504 31.2867C28.9272 30.8976 29.8108 30.0124 30.1711 29.6461C32.3892 27.3757 32.1749 24.3334 32.129 23.7828C31.9809 23.0342 31.2206 19.6719 27.9759 17.393C24.3508 14.8456 20.4232 15.6182 19.7765 15.7566L19.772 15.7545Z" fill="#F4D2B7"/>
<path d="M65.044 18.0323C64.6409 17.7012 64.0136 17.2615 63.1627 16.9217C63.0565 16.8783 62.694 16.7415 62.274 16.6331C58.0372 15.5625 55.6604 18.4841 53.9867 24.0723C53.001 27.3684 53.2099 30.5097 55.0603 32.3742C56.0595 33.3803 57.264 33.7183 57.7607 33.851C60.8254 34.6727 63.4039 32.9989 63.8674 32.6884C64.4561 32.1942 67.0584 29.8921 67.5183 25.9588C68.0329 21.5651 65.4756 18.5246 65.044 18.0323Z" fill="#F4D2B7"/>
<path d="M42.6733 7.01553C42.1553 6.92786 41.3904 6.85541 40.4805 6.98503C40.3656 7.00072 39.9799 7.059 39.5632 7.17708C35.3387 8.34516 34.7377 12.0462 36.0813 17.7044C36.8734 21.0403 38.6336 23.6505 41.1795 24.3512C42.5527 24.7285 43.7683 24.4242 44.2675 24.2947C47.3428 23.489 48.7532 20.7697 48.9985 20.2737C49.2639 19.5537 50.3744 16.2793 48.8019 12.6527C47.0446 8.60076 43.2975 7.23994 42.6723 7.02333L42.6733 7.01553Z" fill="#F4D2B7"/>
</g>
<defs>
<clipPath id="clip0_1929_5856">
<rect width="63" height="50" fill="white" transform="translate(0 21.5473) rotate(-20)"/>
</clipPath>
</defs>
</svg>
