<svg width="63" height="50" viewBox="0 0 63 50" fill="none" xmlns="http://www.w3.org/2000/svg">
<g clip-path="url(#clip0_1925_5804)">
<path d="M29.0197 19.1811C29.0197 19.1811 23.8361 20.9979 23.1138 24.1194C22.3915 27.2409 21.91 29.1489 21.3045 29.9871C20.8371 30.6325 18.1391 34.2029 16.9388 35.7917C16.6024 36.2336 16.2236 36.6369 15.7952 36.9947C14.2443 38.2854 10.2469 42.2662 13.4087 46.7625C16.0005 49.628 19.6156 50.9397 24.8594 48.7336C30.2838 46.8221 31.7886 46.4048 31.7886 46.4048C31.7886 46.4048 39.8048 50.8906 43.5402 49.8419C47.2757 48.7932 52.5195 45.328 50.7739 42.1048C49.0248 38.8816 42.432 32.4352 41.3591 30.1064C40.8528 29.0086 40.3323 27.3251 39.9216 25.8555C38.654 21.3171 34.1644 18.3113 29.473 19.0935C29.3207 19.118 29.1684 19.1461 29.0162 19.1811H29.0197Z" fill="#F4D2B7"/>
<path d="M6.09356 15.6318C5.56954 15.6459 4.8012 15.7195 3.93373 16.0211C3.8275 16.0597 3.45927 16.1895 3.06979 16.3824C-0.849784 18.3325 -0.701074 22.0712 1.75264 27.3532C3.19726 30.4677 5.44915 32.6913 8.09053 32.8877C9.51744 32.9929 10.6505 32.4633 11.1143 32.2424C13.9752 30.8675 14.8144 27.9354 14.9595 27.4023C15.0764 26.6482 15.5119 23.2286 13.2423 19.9774C10.7071 16.3438 6.75214 15.7265 6.0971 15.6353L6.09356 15.6318Z" fill="#F4D2B7"/>
<path d="M20.5609 1.31836C20.0369 1.33239 19.2686 1.40604 18.4011 1.70767C18.2949 1.74625 17.9266 1.87602 17.5372 2.06892C13.6176 4.01898 13.7663 7.75775 16.22 13.0397C17.6646 16.1542 19.9165 18.3778 22.5579 18.5743C23.9848 18.6795 25.1178 18.1499 25.5817 17.9289C28.4426 16.5541 29.2817 13.622 29.4269 13.0888C29.5437 12.3348 29.9793 8.91516 27.7097 5.6639C25.1745 2.03034 21.2195 1.41306 20.5645 1.32187L20.5609 1.31836Z" fill="#F4D2B7"/>
<path d="M62.3237 18.943C62.0582 18.494 61.6191 17.8662 60.9358 17.2559C60.8508 17.1788 60.5569 16.9263 60.1993 16.6808C56.5842 14.2256 53.3516 16.1582 49.8675 20.8369C47.8139 23.5971 46.9358 26.6204 48.0369 29.0054C48.6318 30.2926 49.648 31.0221 50.0693 31.3167C52.6682 33.137 55.6636 32.446 56.2054 32.3128C56.9277 32.0497 60.1604 30.7766 61.9378 27.2377C63.9241 23.285 62.561 19.5532 62.3237 18.943Z" fill="#F4D2B7"/>
<path d="M45.0698 0.939933C44.6131 0.680393 43.9191 0.350707 43.0197 0.161313C42.9064 0.136762 42.524 0.0596016 42.0921 0.028036C37.7228 -0.319186 35.8923 2.95312 35.2195 8.72964C34.823 12.1352 35.5842 15.1901 37.737 16.7193C38.8983 17.5435 40.1447 17.6732 40.6581 17.7223C43.8235 18.017 46.0789 15.9441 46.479 15.5618C46.9747 14.9761 49.1381 12.279 48.9009 8.33331C48.6353 3.92464 45.5797 1.36432 45.0663 0.946947L45.0698 0.939933Z" fill="#F4D2B7"/>
</g>
<defs>
<clipPath id="clip0_1925_5804">
<rect width="63" height="50" fill="white"/>
</clipPath>
</defs>
</svg>
