<svg width="80" height="75" viewBox="0 0 80 75" fill="none" xmlns="http://www.w3.org/2000/svg">
<g clip-path="url(#clip0_1929_5856)">
<path d="M40.5411 31.1218C40.5411 31.1218 35.1436 30.1034 32.9573 32.4455C30.771 34.7877 29.4 36.1993 28.4566 36.6225C27.7291 36.9477 23.6074 38.6907 21.7735 39.4665C21.2612 39.6811 20.7314 39.8409 20.1815 39.9365C18.1931 40.2789 12.7408 41.7276 13.2309 47.2025C14.0427 50.9799 16.5176 53.9235 22.1619 54.6348C27.8153 55.6916 29.3272 56.0826 29.3272 56.0826C29.3272 56.0826 34.0265 63.9755 37.7859 64.9351C41.5452 65.8946 47.8191 65.5156 47.919 61.8514C48.0158 58.1855 45.5294 49.3063 45.7648 46.7531C45.8752 45.5492 46.2662 43.831 46.6452 42.353C47.8167 37.7888 45.4314 32.9409 40.9775 31.2725C40.8333 31.2176 40.6874 31.1658 40.5381 31.1201L40.5411 31.1218Z" fill="#F4D2B7"/>
<path d="M22.4612 16.5844C22.0003 16.3345 21.2981 16.0141 20.3961 15.8416C20.2848 15.8219 19.901 15.7502 19.4672 15.7225C15.0978 15.4515 13.3572 18.7637 12.8411 24.5649C12.535 27.9845 13.3734 31.0361 15.5627 32.5269C16.7458 33.3315 17.9918 33.4393 18.504 33.4799C21.669 33.7197 23.8618 31.6 24.2541 31.2109C24.7323 30.6163 26.8193 27.8726 26.4794 23.9221C26.1006 19.5078 22.9842 16.9957 22.4625 16.5892L22.4612 16.5844Z" fill="#F4D2B7"/>
<path d="M42.1469 11.4223C41.6861 11.1724 40.9839 10.852 40.0818 10.6795C39.9705 10.6598 39.5867 10.5881 39.153 10.5604C34.7835 10.2894 33.0429 13.6016 32.5269 19.4028C32.2207 22.8223 33.0591 25.874 35.2484 27.3648C36.4315 28.1694 37.6776 28.2772 38.1898 28.3178C41.3548 28.5576 43.5476 26.4379 43.9398 26.0488C44.4181 25.4542 46.505 22.7104 46.1651 18.76C45.7864 14.3456 42.6699 11.8336 42.1483 11.4271L42.1469 11.4223Z" fill="#F4D2B7"/>
<path d="M69.5025 47.5667C69.497 47.0452 69.4306 46.2819 69.144 45.4117C69.109 45.3024 68.9807 44.9368 68.7938 44.5454C66.8906 40.6117 63.1247 40.6689 57.7681 42.9788C54.6095 44.3424 52.3374 46.5216 52.0985 49.1376C51.9701 50.5498 52.4854 51.6897 52.703 52.1555C54.0435 55.0313 56.9831 55.9307 57.5189 56.0861C58.276 56.2195 61.7121 56.7332 65.0209 54.5572C68.7174 52.1272 69.4028 48.2138 69.5025 47.5667Z" fill="#F4D2B7"/>
<path d="M63.5616 23.3485C63.2958 22.8953 62.8597 22.2628 62.1755 21.6492C62.0897 21.5712 61.7971 21.3132 61.4388 21.0699C57.8285 18.5846 54.607 20.5032 51.1362 25.1694C49.0899 27.9205 48.2218 30.9467 49.3215 33.3474C49.9152 34.6418 50.9297 35.3774 51.3497 35.6766C53.9437 37.5145 56.9334 36.8471 57.4711 36.716C58.1932 36.4566 61.4153 35.2026 63.1827 31.6669C65.1571 27.7161 63.791 23.971 63.555 23.3528L63.5616 23.3485Z" fill="#F4D2B7"/>
</g>
<defs>
<clipPath id="clip0_1929_5856">
<rect width="63" height="50" fill="white" transform="translate(25) rotate(30)"/>
</clipPath>
</defs>
</svg>
